<?xml version="1.0" standalone="no"?>
<svg id="SvgjsSvg1001" width="600" height="600" xmlns="http://www.w3.org/2000/svg" version="1.1" xmlns:xlink="http://www.w3.org/1999/xlink" xmlns:svgjs="http://svgjs.com/svgjs" class="svg-paper" viewBox="0 0 600 600"><title id="SvgjsTitle1970">x=sin(max(y/y,y))|y=(cos((x+sqrt(x*x + y*y)))-sin(y))|dTest=0.0|sd=0.2|sm=0.2|ts=0.05 | generated with FlowLines</title><g id="SvgjsG1971"><polyline id="SvgjsPolyline1972" points="0,521.08 11.62,524.05 17.26,526.09 22.74,528.54 28,531.42 33.02,534.71 37.76,538.38 42.22,542.39 50.31,551.25 59.07,563.41 68.14,578.95 77.56,597.72" fill="none" stroke="#000000" stroke-width="1"/><polyline id="SvgjsPolyline1973" points="2.31,509.3 32.02,505.12 58.66,500.74 82.2,496.08 102.58,491.03 119.71,485.53 133.53,479.71 141.5,475.52 146.62,472.4 156.33,465.36 165.2,457.28 173.18,448.33 180.33,438.7 186.79,428.59 192.7,418.14 199.53,404.79 221.03,358.54 230.36,339.73 239.19,324.05 249.15,309.06 256.56,299.63 262.58,292.93 268.99,286.62 275.79,280.74 283.01,275.35 290.65,270.61 298.77,266.74 304.45,264.82 313.29,263.23 316.29,263.09 322.27,263.43 331.04,265.4 336.65,267.54 342.02,270.21 349.64,274.98 359.11,282.35 370.13,292.51 389.28,311.55 395.97,317.56 400.68,321.29 405.65,324.64 410.95,327.44 416.6,329.45 422.51,330.41 428.49,330.17 434.32,328.78 439.86,326.49 447.57,321.85 454.68,316.34 461.38,310.33 487.09,285.15 494,279.38 501.47,274.37 506.85,271.71 512.56,269.9 518.5,269.17 524.47,269.65 530.25,271.25 535.7,273.73 540.83,276.84 545.67,280.39 556.89,290.34 573.81,307.35 582.54,315.59 591.95,323.02 599.74,327.51" fill="none" stroke="#000000" stroke-width="1"/><polyline id="SvgjsPolyline1974" points="0.32,533.4 8.01,538.07 15.14,543.56 21.67,549.75 27.63,556.49 34.8,566.11 41.25,576.22 47.18,586.65 54.1,599.96" fill="none" stroke="#000000" stroke-width="1"/><polyline id="SvgjsPolyline1975" points="1.57,514.91 10.55,515.5 19.48,516.66 28.27,518.56 36.88,521.16 45.19,524.61 50.47,527.46 55.48,530.75 60.21,534.45 64.63,538.51 70.7,545.14 76.17,552.28 81.14,559.79 89.94,575.49 101.53,599.87" fill="none" stroke="#000000" stroke-width="1"/><polyline id="SvgjsPolyline1976" points="0.75,497.4 8.71,493.21 16.31,488.39 21.13,484.83 27.96,478.97 32.24,474.76 38.23,468.05 43.74,460.93 48.82,453.51 56.49,440.62 64.71,424.61 72.25,408.27 91.45,364.27 101.78,342.61 107.42,332.02 113.51,321.68 120.13,311.67 125.49,304.45 133.24,295.29 139.5,288.83 146.16,282.78 153.2,277.17 160.58,272.01 168.26,267.33 176.2,263.09 187.12,258.12 201.18,252.91 218.48,247.96 233.15,244.86 250.97,242.36 265.94,241.44 280.93,241.8 286.91,242.37 295.8,243.74 307.44,246.61 315.94,249.58 324.16,253.24 332.06,257.54 342.06,264.16 351.47,271.61 360.34,279.68 387.47,307.7 398.47,317.89 405.73,323.2 410.97,326.12 416.56,328.26 422.45,329.36 428.44,329.26 434.3,327.98 439.86,325.76 447.62,321.21 452.44,317.64 459.28,311.8 480.72,290.82 489.57,282.71 496.68,277.2 504.41,272.61 509.98,270.41 512.89,269.66 518.84,269.01 521.84,269.14 527.72,270.29 530.56,271.25 535.99,273.78" fill="none" stroke="#000000" stroke-width="1"/><polyline id="SvgjsPolyline1977" points="2.41,504.36 13.82,500.64 22.15,497.25 27.57,494.66 38.05,488.83 43.06,485.53 50.2,480.05 56.83,473.97 62.96,467.38 68.59,460.36 73.77,453.01 78.57,445.39 84.46,434.94 95.04,413.4 114.34,369.45 124.46,347.69 129.93,337.01 135.8,326.54 145.54,311.42 150.92,304.2 158.68,295.05 167.14,286.55 173.94,280.66 183.57,273.5 191.17,268.68 201.72,262.97 209.9,259.21 223.91,253.88 235.4,250.42 247.08,247.67 258.91,245.67 270.85,244.51 279.85,244.27 291.82,244.94 300.72,246.29 312.33,249.29 320.76,252.45 331.49,257.79 341.6,264.26 351.07,271.61 360.01,279.62 368.52,288.07 387.2,307.58 395.9,315.83 400.53,319.65 405.42,323.12 413.39,327.26 419.14,328.97 425.1,329.54 431.06,328.89 436.79,327.16 442.22,324.6 449.77,319.72 456.77,314.07 463.4,307.99" fill="none" stroke="#000000" stroke-width="1"/><polyline id="SvgjsPolyline1978" points="1.01,511.83 16,511.21 28,511.25 36.98,511.78 45.91,512.91 54.71,514.76 63.34,517.31 71.59,520.89 79.29,525.53 86.31,531.16 92.6,537.58 98.23,544.61 103.28,552.05 107.87,559.79 113.46,570.41 125.93,597.69" fill="none" stroke="#000000" stroke-width="1"/><polyline id="SvgjsPolyline1979" points="2.85,507.4 17.52,504.26 29.12,501.19 40.5,497.39 51.53,492.67 62.04,486.9 71.99,480.2 78.9,474.44 87.32,465.89 93.04,458.95 99.97,449.16 104.71,441.51 110.55,431.02 119.81,412.18 139.23,368.28 146.78,351.94 156.36,333.26 163.98,320.34 168.94,312.83 174.25,305.57 179.93,298.59 186.01,291.95 192.47,285.69 199.33,279.86 211.54,271.16 219.28,266.57 230,261.18 241.09,256.62 252.5,252.89 261.21,250.66 273.02,248.54 284.98,247.56 293.97,247.7 302.91,248.7 311.71,250.6 320.26,253.4 328.48,257.04 336.34,261.43 343.81,266.43 350.92,271.95 359.91,279.9" fill="none" stroke="#000000" stroke-width="1"/><polyline id="SvgjsPolyline1980" points="1.07,510.43 21.98,508.44 39.93,507.17 51.92,506.79 63.92,507.1 72.87,508.02 84.63,510.35 93.2,513.1 101.32,516.96 108.8,521.96 115.51,527.94 121.48,534.67 128.41,544.46 134.45,554.83 139.86,565.54 154.35,598.49" fill="none" stroke="#000000" stroke-width="1"/><polyline id="SvgjsPolyline1981" points="2.79,508.62 23.49,505.11 41.1,501.36 55.56,497.4 66.88,493.42 75.12,489.82 80.46,487.07 90.66,480.76 100.22,473.52 106.81,467.4 112.89,460.76 120.22,451.27 126.81,441.24 132.79,430.84 143.49,409.36 164.29,362.79 173.36,343.86 183.45,325.44 193.28,310.37 200.61,300.87 206.55,294.11 215.09,285.68 221.94,279.86 229.16,274.48 236.71,269.59 247.24,263.83 255.43,260.1 266.69,255.98 275.37,253.61 284.22,251.95 293.17,251.14 302.17,251.3 308.13,252 316.91,253.94 325.4,256.91 330.85,259.41 338.7,263.81 346.14,268.88 353.2,274.46 366.41,286.67 389.45,310.29 396.07,316.39 400.72,320.18 408.23,325.13 413.66,327.66 419.43,329.28 425.4,329.76" fill="none" stroke="#000000" stroke-width="1"/><polyline id="SvgjsPolyline1982" points="1.3,509.9 54.95,503.78 72.89,502.39 84.89,502.07 96.87,502.63 108.74,504.39 117.43,506.68 125.73,510.14 133.41,514.83 140.3,520.61 146.38,527.23 153.39,536.96 159.44,547.32 164.83,558.04 171,571.72 182.74,599.32" fill="none" stroke="#000000" stroke-width="1"/><polyline id="SvgjsPolyline1983" points="14,507.48 37.68,503.62 55.34,500.11 69.9,496.53 84.21,492.03 95.32,487.5 105.93,481.92 115.84,475.15 122.81,469.46 127.21,465.39 133.38,458.84 140.85,449.45 147.54,439.49 153.61,429.14 164.45,407.73 185.43,361.25 193.23,345.03 201.74,329.17 211.28,313.91 218.37,304.23 224.12,297.31 230.27,290.74 236.81,284.57 243.74,278.82 251.03,273.55 258.66,268.77 266.6,264.54 274.83,260.91 283.34,257.99 292.1,255.94 301.04,254.96 307.04,254.97 315.96,256.08 324.64,258.43 330.22,260.63 335.61,263.27 343.32,267.9 348.22,271.36 355.26,276.97 366.29,287.13 391.62,312.71 398.38,318.64 403.18,322.24" fill="none" stroke="#000000" stroke-width="1"/><polyline id="SvgjsPolyline1984" points="1.75,509.63 85,498.47 99.91,496.77 111.87,495.82 123.86,495.56 132.85,495.92 138.82,496.52 147.66,498.22 156.17,501.11 164.11,505.33 171.25,510.79 177.53,517.22 184.72,526.83 190.86,537.13 196.3,547.83 202.5,561.48 214.35,589.04 219.4,599.93" fill="none" stroke="#000000" stroke-width="1"/><polyline id="SvgjsPolyline1985" points="17.37,507.5 55.96,501.91 94.42,495.43 123.88,489.78 179.67,478.07 197.39,474.92 209.3,473.52 218.29,473.15 227.27,473.68 233.18,474.71 241.74,477.47 249.65,481.73 256.72,487.28 262.96,493.76 268.51,500.84 275.15,510.84 295.84,547.38 305.5,562.57 310.97,569.7 314.97,574.18 321.59,580.26 326.46,583.76 334.41,587.96 340.06,589.98 345.88,591.42 351.81,592.33 357.79,592.82 384.78,592.84 396.76,593.5 402.69,594.43 408.5,595.92 416.81,599.34" fill="none" stroke="#000000" stroke-width="1"/><polyline id="SvgjsPolyline1986" points="55.84,500.99 73.47,497.36 88.01,493.68 99.47,490.12 110.65,485.79 121.41,480.47 129.06,475.73 138.54,468.39 145.05,462.18 151.03,455.46 158.35,445.95 163.41,438.51 169.6,428.23 175.29,417.67 180.62,406.92 201.81,360.53 211.02,341.66 221.27,323.33 231.29,308.38 238.75,298.99 244.8,292.33 251.24,286.05 260.44,278.35 267.78,273.14 275.48,268.48 283.53,264.47 291.94,261.29 297.74,259.74 303.65,258.75 309.64,258.39 315.63,258.71 321.55,259.69 327.32,261.3 332.92,263.46 338.3,266.11 348.44,272.52 357.83,279.98 368.79,290.21 389.92,311.5 396.61,317.52 401.33,321.24 406.32,324.56 411.64,327.32 417.31,329.25 423.24,330.11 429.22,329.76 435.03,328.28 440.53,325.91 448.2,321.21 452.97,317.58 459.77,311.68 487.72,284.5 494.68,278.79 499.63,275.4 507.64,271.34 513.4,269.67 519.36,269.11 525.32,269.77 531.05,271.52 536.46,274.11 541.54,277.3 546.34,280.89 555.34,288.83 576.56,310.03 583.17,316.13 590.19,321.76 597.81,326.54" fill="none" stroke="#000000" stroke-width="1"/><polyline id="SvgjsPolyline1987" points="0.72,509.65 39.35,504.32 71.93,499.04 98.44,493.92 121.78,488.34 138.99,483.08 152.93,477.58 161.01,473.62 166.23,470.65 178.61,462.2 187.76,454.44 196.06,445.78 203.54,436.4 211.89,423.94 217.94,413.58 224.94,400.32 245.72,357.05 253.82,340.98 262.62,325.27 270.75,312.67 279.82,300.73 289.96,289.68 298.94,281.73 303.8,278.22 308.98,275.19 314.49,272.83 317.36,271.96 323.27,270.96 326.26,270.85 329.26,271 335.16,272.04 343.6,275.12 351.45,279.51 361.1,286.63 370.1,294.57 389.58,313.26 396.38,319.16 401.16,322.78 406.21,326.01 411.6,328.65 417.31,330.46 423.26,331.18 429.23,330.69 435.01,329.11 440.48,326.67 448.11,321.9 452.86,318.24 459.62,312.3 480.91,291.17 489.73,283.03 494.39,279.26 499.31,275.82 507.28,271.67" fill="none" stroke="#000000" stroke-width="1"/><polyline id="SvgjsPolyline1988" points="0.28,509.73 50.79,502.69 98.11,494.65 136.31,486.76 156.73,481.87 174.12,477.23 202.79,468.4 228.12,459.07 250.17,449.61 293.58,429.11 304.71,424.65 316.19,421.18 325.04,419.53 331.01,418.98 337.01,418.85 345.99,419.33 363.9,421.13 372.9,421.36 378.87,420.88 384.77,419.78 393.28,416.89 401.22,412.67 406.17,409.28 410.85,405.53 419.52,397.24 427.45,388.23 434.84,378.78 443.55,366.57 476.82,316.65 483.98,307.02 491.72,297.85 498.12,291.53 502.78,287.75 507.84,284.53 516.11,281.02 521.96,279.71 527.95,279.72 533.8,280.97 536.63,281.98 542.02,284.6 547.1,287.79 554.25,293.25 576.45,313.43 585.62,321.16 593.01,326.28 598.3,329.12" fill="none" stroke="#000000" stroke-width="1"/><polyline id="SvgjsPolyline1989" points="380.48,113.11 379.11,110.45 377.27,108.08 372.89,103.99 370.38,102.34 367.62,101.18 364.73,101.85 363.21,104.4 362.7,107.35 363.1,113.32 364.43,119.17 366.26,124.89 369.55,133.26 373.29,141.45 378.74,152.14 384.57,162.62 392.27,175.5 407.1,198.06 419.66,214.88 425.48,221.75 431.7,228.24 438.51,234.12 443.49,237.46 448.88,240.09 454.63,241.76 460.59,242.45 466.58,242.3 490.29,238.64 499.28,238.29 508.17,239.56 513.88,241.4 519.31,243.94 524.45,247.03 529.3,250.56 538.28,258.51 550.61,271.62 571.81,296.91 579.78,305.87 588.34,314.28 592.97,318.1 597.9,321.51" fill="none" stroke="#000000" stroke-width="1"/><polyline id="SvgjsPolyline1990" points="1.22,547.96 9.64,556.5 18.91,568.29 28.62,583.44 37.33,599.19" fill="none" stroke="#000000" stroke-width="1"/><polyline id="SvgjsPolyline1991" points="0.37,484.13 9.04,475.85 16.83,466.73 23.82,456.97 31.61,444.16 37.26,433.57 43.8,420.08 67.89,365.12 79.54,340.77 86.75,327.62 93.05,317.41 99.92,307.57 105.5,300.51 113.53,291.6 122.27,283.38 131.68,275.94 141.68,269.31 152.18,263.5 165.84,257.31 179.93,252.19 194.33,248.01 211.89,244.07 226.69,241.64 244.59,239.74 259.58,239.14 274.57,239.59 286.49,240.9 298.27,243.19 309.77,246.59 318.14,249.89 328.86,255.28 336.52,259.99 346.22,267.06 353.12,272.83 361.89,281.02 391.1,311.19 397.77,317.23 402.49,320.93 407.51,324.22 412.87,326.9 418.58,328.72 424.53,329.42 430.5,328.9 436.26,327.27 441.72,324.79 449.32,319.98 454.06,316.31 460.82,310.37 486.63,285.27 493.53,279.49 500.97,274.44 506.32,271.74 512.01,269.85 517.94,269.02 523.92,269.41 529.71,270.93 535.2,273.35 540.35,276.42 545.21,279.94 556.46,289.85 575.52,308.98 584.34,317.11 591.44,322.63 599.18,327.21" fill="none" stroke="#000000" stroke-width="1"/><polyline id="SvgjsPolyline1992" points="380.96,114.57 380.28,111.68 377.08,106.62 371.09,99.91 364.38,93.92 359.59,90.3 351.98,85.51 343.85,81.67 338.13,79.86 332.21,78.92 326.23,79.17 323.31,79.88 320.54,81 317.97,82.54 315.67,84.47 313.67,86.71 312,89.2 310.64,91.87 308.74,97.55 307.78,103.47 307.68,112.46 308.29,118.42 309.97,127.26 312.35,135.94 315.26,144.46 319.75,155.58 323.47,163.78 334.3,185.19 354.52,222 368.45,248.57 377.21,264.29 385.03,277.1 391.75,287.04 399.09,296.52 405.21,303.12 409.69,307.11 414.58,310.57 419.93,313.27 422.77,314.24 428.68,315.24 431.67,315.25 437.64,314.65 443.44,313.17 451.57,309.32 459.04,304.31 466.06,298.69 486.42,280.96 493.59,275.52 498.65,272.29 503.99,269.58 509.65,267.6 515.56,266.62 521.55,266.81 527.39,268.14 532.94,270.41 538.16,273.37 543.07,276.82 547.73,280.6 554.37,286.67 575.39,308.07 584.14,316.28 591.19,321.87 598.86,326.55" fill="none" stroke="#000000" stroke-width="1"/><polyline id="SvgjsPolyline1993" points="0.27,510.89 18.21,509.44 33.19,508.66 45.19,508.57 54.18,509 63.11,510.06 71.9,511.98 80.39,514.95 88.36,519.11 95.63,524.4 102.14,530.61 109.76,539.88 114.91,547.25 121.02,557.58 126.51,568.25 139.98,598.37" fill="none" stroke="#000000" stroke-width="1"/><polyline id="SvgjsPolyline1994" points="1.6,512.62 13.6,512.49 22.59,512.78 31.55,513.58 40.43,515.06 49.11,517.41 54.71,519.56 60.1,522.2 67.66,527.06 74.51,532.89 80.65,539.47 86.14,546.59 91.11,554.1 95.64,561.87 101.19,572.51 113.74,599.76" fill="none" stroke="#000000" stroke-width="1"/><polyline id="SvgjsPolyline1995" points="0.71,510.1 48.44,505.08 63.41,504.11 75.4,503.91 87.38,504.62 96.26,506.05 104.9,508.55 113.07,512.3 120.55,517.29 127.21,523.34 133.08,530.15 141.68,542.43 147.6,552.87 152.91,563.62 168.44,599.4" fill="none" stroke="#000000" stroke-width="1"/><polyline id="SvgjsPolyline1996" points="2.26,509.64 70.72,501.03 85.64,499.55 97.62,498.79 109.61,498.75 118.58,499.48 127.42,501.17 135.92,504.1 143.81,508.4 153.25,515.79 159.5,522.26 166.66,531.88 172.8,542.19 179.52,555.59 198.62,599.63" fill="none" stroke="#000000" stroke-width="1"/><polyline id="SvgjsPolyline1997" points="1.04,509.67 45.63,503.63 110.89,493.75 131.74,491.28 143.72,490.61 155.7,491.05 164.57,492.55 173.21,495.06 178.73,497.4 183.95,500.35 191.08,505.84 197.32,512.31 204.45,521.95 210.56,532.28 215.99,542.97 233.1,581.33 241.02,597.49" fill="none" stroke="#000000" stroke-width="1"/><polyline id="SvgjsPolyline1998" points="63.16,500.86 134.16,488.92 149,486.77 160.94,485.58 172.93,485.3 181.89,486.11 190.64,488.2 199.09,491.26 206.87,495.76 213.78,501.51 219.82,508.18 226.74,517.97 231.31,525.73 236.84,536.37 257.25,579.82 262.99,590.35 267.82,597.94" fill="none" stroke="#000000" stroke-width="1"/><polyline id="SvgjsPolyline1999" points="2.96,509.4 38.63,504.54 71.24,499.5 100.8,494.39 150.93,485 168.7,482.13 180.63,480.86 189.62,480.57 198.59,481.2 207.37,483.13 215.73,486.47 223.51,490.96 230.42,496.71 234.54,501.07 238.31,505.74 245.02,515.68 250.94,526.11 269.5,563.79 276.61,577 281.35,584.65 284.8,589.55 288.55,594.24 292.65,598.62" fill="none" stroke="#000000" stroke-width="1"/><polyline id="SvgjsPolyline2000" points="43.33,503.82 84.79,497.11 123.09,489.78 155.31,482.63 201.94,471.25 219.57,467.61 228.48,466.37 237.46,465.85 243.45,466.08 249.42,466.76 255.3,467.9 261.02,469.7 269.09,473.66 276.39,478.91 282.92,485.1 288.81,491.9 294.24,499.07 314.23,529.01 323.08,541.12 328.94,547.95 333.16,552.21 337.68,556.16 342.52,559.69 347.69,562.73 353.16,565.2 358.85,567.08 367.67,568.85 379.64,569.66 400.63,569.29 409.63,569.49 418.55,570.58 424.37,572.06 427.19,573.06 432.6,575.64 439.97,580.79 444.34,584.9 448.31,589.4 455.31,599.14" fill="none" stroke="#000000" stroke-width="1"/><polyline id="SvgjsPolyline2001" points="66.51,500.24 104.92,493.52 169.63,480.53 187.38,477.54 199.32,476.36 208.31,476.3 217.24,477.36 225.86,479.91 231.26,482.52 238.63,487.67 245.18,493.83 251.11,500.6 256.36,507.9 262.64,518.12 283.54,557.97 289.53,568.37 294.46,575.9 299.94,583.04 306.13,589.56 313.18,595.14 321.07,599.43" fill="none" stroke="#000000" stroke-width="1"/><polyline id="SvgjsPolyline2002" points="131.22,488.1 195.53,473.26 216.15,469.35 225.1,468.39 234.1,468.27 243.02,469.37 248.8,470.98 254.32,473.32 261.94,478.08 266.53,481.94 272.77,488.42 278.36,495.46 283.5,502.86 305.33,538.73 313.68,551.19 319.23,558.27 323.25,562.73 329.85,568.83 334.68,572.39 339.85,575.43 345.32,577.9 351.01,579.77 356.87,581.08 368.79,582.36 398.78,582.99 404.74,583.64 410.63,584.78 419.15,587.63 424.49,590.38 429.45,593.74 436.16,599.73" fill="none" stroke="#000000" stroke-width="1"/><polyline id="SvgjsPolyline2003" points="16.97,507.54 55.56,501.9 88.09,496.33 114.55,491.01 137.88,485.37 157.98,479.3 171.98,473.93 185.45,467.35 190.62,464.31 198.08,459.27 209.65,449.74 218.15,441.26 225.86,432.08 234.54,419.85 240.86,409.65 248.18,396.56 271.27,351.08 278.32,337.84 285.84,324.87 294.06,312.32 301.27,302.73 309.24,293.77 316.02,287.86 321.07,284.63 323.77,283.32 329.47,281.5 335.43,280.91 338.42,281.1 344.29,282.32 347.13,283.29 352.58,285.79 357.74,288.85 365.03,294.12 371.93,299.89 392.03,317.92 401.61,325.13 406.78,328.17 412.28,330.57 418.08,332.07 421.06,332.42 427.04,332.21 432.89,330.88 438.44,328.63 446.18,324.04 450.99,320.46 457.81,314.59 481.18,291.29" fill="none" stroke="#000000" stroke-width="1"/><polyline id="SvgjsPolyline2004" points="83.8,497.21 107.39,492.76 133.77,487.05 154.13,481.89 174.23,475.8 188.3,470.63 201.99,464.5 215.06,457.15 224.9,450.29 234.11,442.6 242.76,434.29 250.73,425.33 259.85,413.42 266.59,403.49 274.49,390.74 302.99,341.38 309.44,331.26 316.38,321.48 322.12,314.54 328.57,308.28 333.42,304.76 338.8,302.13 344.63,300.74 347.62,300.59 353.57,301.3 359.27,303.13 364.68,305.73 369.82,308.82 391.6,324.77 401.73,331.18 407.16,333.73 412.87,335.55 418.8,336.41 424.79,336.15 430.63,334.81 436.19,332.57 441.43,329.65 448.74,324.42 459.9,314.4 485.05,288.64 491.73,282.61 498.9,277.18 504.05,274.12 509.56,271.74 515.37,270.31 521.36,270.05 527.27,271.01 532.93,273 538.25,275.77 543.25,279.07 547.99,282.75 554.74,288.7 576.05,309.82 582.65,315.93 592.1,323.32 599.91,327.76" fill="none" stroke="#000000" stroke-width="1"/><polyline id="SvgjsPolyline2005" points="102.9,493.76 129.36,488.38 158.58,481.61 184.7,474.76 225.11,463.3 239.66,459.65 248.49,457.94 257.42,456.87 266.42,456.65 272.41,456.97 281.26,458.56 286.96,460.43 295.04,464.37 302.48,469.42 307.1,473.24 313.64,479.43 334.02,501.43 340.35,507.83 349.44,515.66 356.94,520.63 365.1,524.39 373.82,526.56 382.79,526.98 388.76,526.33 394.61,525.03 400.32,523.17 408.54,519.53 416.35,515.06 423.73,509.91 430.69,504.22 439.36,495.92 445.4,489.26 452.9,479.89 463.08,465.05 469.25,454.76 475.04,444.24 483.17,428.19 503.85,384.87 512.27,368.97 516.91,361.26 522.02,353.85 527.8,346.96 532.16,342.84 537.02,339.34 542.42,336.73 548.24,335.32 554.22,335.16 557.2,335.51 563.05,336.82 568.75,338.72 585.48,345.34 591.19,347.18 597.05,348.47" fill="none" stroke="#000000" stroke-width="1"/><polyline id="SvgjsPolyline2006" points="145.47,484.49 162.9,480 180.17,474.95 194.4,470.19 205.61,465.93 216.63,461.17 227.38,455.84 237.77,449.85 247.73,443.16 254.87,437.68 261.72,431.84 270.5,423.66 276.79,417.23 290.62,401.43 314.82,370.85 322.53,361.65 328.65,355.05 332.98,350.9 337.57,347.05 342.51,343.64 347.83,340.88 353.53,339.02 356.48,338.49 362.47,338.26 365.46,338.53 371.34,339.69 377.08,341.41 394.01,347.55 399.78,349.18 405.68,350.24 411.67,350.52 414.66,350.32 420.55,349.23 426.22,347.28 431.6,344.63 436.68,341.43 441.48,337.84 448.26,331.92 458.76,321.22 482.76,294.39 493.55,283.98 498.24,280.24 503.24,276.92 508.59,274.22 511.41,273.18 517.26,271.9 520.25,271.71 526.21,272.26 531.97,273.94 539.99,277.99 547.33,283.19 554.17,289.03 575.64,309.98 584.54,318.02 591.71,323.46 599.51,327.93" fill="none" stroke="#000000" stroke-width="1"/><polyline id="SvgjsPolyline2007" points="152.44,483.02 172.78,477.78 192.97,472.01 213.01,465.72 247.17,454.36 261.54,450.09 270.3,448.03 276.21,447 288.17,446.06 294.17,446.13 300.13,446.74 306.01,447.94 314.55,450.76 320.01,453.24 327.89,457.6 353.18,473.71 361.25,477.69 366.9,479.7 372.76,480.98 378.74,481.37 384.7,480.77 390.49,479.22 396,476.85 398.62,475.39 403.61,472.07 408.27,468.28 412.61,464.15 418.62,457.45 427.54,445.4 436.96,430.06 445.44,414.19 475.12,351.9 481.92,338.53 487.73,328.03 494.03,317.82 501.06,308.11 507.05,301.39 513.91,295.58 519.08,292.55 521.85,291.41 527.68,290.06 533.67,290.1 536.62,290.62 542.32,292.47 550.28,296.64 557.66,301.79 578.47,319 585.62,324.46 593.22,329.28 598.62,331.87" fill="none" stroke="#000000" stroke-width="1"/><polyline id="SvgjsPolyline2008" points="134.57,487.12 166.59,479.18 181.01,475.05 195.31,470.51 217.82,462.19 228.84,457.45 239.66,452.26 252.83,445.1 268.07,435.51 282.67,424.99 313.18,400.7 322.77,393.49 332.82,386.94 338.09,384.08 343.56,381.62 352.13,378.89 361.01,377.47 370,377.18 387.99,377.76 396.97,377.25 405.78,375.45 411.43,373.46 416.84,370.86 421.98,367.77 429.19,362.39 435.89,356.38 442.18,349.95 453.91,336.3 479.92,303.32 485.78,296.5 491.99,289.98 496.39,285.9 501.07,282.15 506.1,278.88 511.51,276.31 517.28,274.71 520.26,274.36 526.25,274.62 532.06,276.07 540.19,279.89 547.63,284.95 554.55,290.7 576.24,311.42 582.94,317.43 590.03,322.96 597.72,327.63" fill="none" stroke="#000000" stroke-width="1"/><polyline id="SvgjsPolyline2009" points="157.31,481.76 180.48,475.52 200.57,469.4 226.09,460.59 273.81,442.59 285.28,439.09 297.02,436.64 302.99,436.01 311.99,435.86 317.97,436.22 323.91,437.08 335.53,440.05 361.04,448.87 366.88,450.26 372.82,451.06 378.81,451.1 384.75,450.27 390.5,448.57 395.95,446.08 403.5,441.19 408.12,437.36 412.44,433.2 420.35,424.19 427.51,414.56 435.71,402 443.36,389.1 467.98,344.44 476.96,328.84 484.96,316.15 491.92,306.37 499.66,297.22 506.24,291.08 511.12,287.6 513.73,286.13 519.29,283.89 525.19,282.87 531.17,283.2 536.96,284.73 545.05,288.65 550.07,291.94 557.17,297.46 577.35,315.4 584.28,321.13 591.64,326.32 599.61,330.47" fill="none" stroke="#000000" stroke-width="1"/><polyline id="SvgjsPolyline2010" points="205.78,467.16 228.16,458.53 249.97,448.5 268.49,438.62 304.74,417.41 315.4,411.9 323.66,408.33 335.02,404.46 340.85,403.06 346.76,402.07 355.73,401.33 379.73,401.07 388.66,400.05 397.37,397.81 402.93,395.57 408.25,392.79 415.71,387.77 422.61,381.99 429.02,375.68 436.99,366.71 449.87,350.13 477.75,311.06 485.15,301.61 491.06,294.82 497.43,288.47 502.03,284.62 506.99,281.25 512.35,278.58 518.1,276.88 521.07,276.49 527.06,276.67 532.88,278.06 535.68,279.13 541.04,281.84 548.49,286.86 555.44,292.58 577.31,313.12 584.1,319.02 591.32,324.39 599.16,328.79" fill="none" stroke="#000000" stroke-width="1"/><polyline id="SvgjsPolyline2011" points="219.63,462.63 239.2,455.01 283.44,436.4 294.75,432.4 306.36,429.39 312.29,428.43 318.26,427.92 324.26,427.88 330.24,428.31 339.14,429.68 362.6,434.71 368.54,435.57 374.53,435.92 380.51,435.62 386.41,434.54 392.12,432.69 400.13,428.63 407.43,423.38 414.08,417.31 422.12,408.41 429.46,398.92 436.3,389.06 444.38,376.42 475.33,325.02 481.93,315.01 488.98,305.29 496.72,296.13 503.21,289.9 510.53,284.69 515.96,282.14 521.76,280.68 527.75,280.53 533.63,281.66 536.47,282.62 541.9,285.17 549.47,290.03 556.52,295.62 576.49,313.78 583.34,319.63 590.57,324.97 595.72,328.05" fill="none" stroke="#000000" stroke-width="1"/><polyline id="SvgjsPolyline2012" points="380.75,114.21 379.82,111.38 378.18,108.87 374.19,104.4 369.6,100.53 364.48,97.42 361.69,96.32 358.75,95.78 355.81,96.31 353.46,98.16 351.98,100.75 351.16,103.63 350.8,106.61 350.72,112.61 351.29,118.58 352.44,124.46 353.96,130.27 356.75,138.82 359.95,147.23 364.67,158.26 377.78,185.25 409.99,246.27 414.51,254.05 419.45,261.57 424.99,268.66 429.14,272.98 433.78,276.79 436.3,278.42 441.74,280.9 447.61,282.11 453.59,281.93 459.43,280.59 467.75,277.17 488.65,265.38 494.01,262.69 499.56,260.42 505.34,258.8 511.28,258.06 517.27,258.37 523.1,259.73 528.66,262 533.88,264.95 538.78,268.4 543.43,272.19 554.23,282.59 574.58,304.63 583.08,313.11 592.3,320.77 599.96,325.47" fill="none" stroke="#000000" stroke-width="1"/><polyline id="SvgjsPolyline2013" points="377.88,113.41 380.6,113.66 379.39,110.93 377.59,108.53 375.51,106.36 372.63,106.62 372.37,109.58 372.96,112.52 376.32,120.86 383.76,133.87 392.28,146.21 401.69,157.89 409.86,166.68 418.68,174.81 428.3,181.97 433.46,185.03 438.86,187.64 444.48,189.72 450.29,191.21 456.22,192.12 462.21,192.52 486.2,192.5 492.17,193.09 498.05,194.28 503.75,196.13 511.83,200.08 516.84,203.37 523.83,209.04 528.16,213.19 534.21,219.84 543.32,231.76 548.26,239.28 568.51,272.61 580.17,290.07 589.51,301.8 593.63,306.16 598.06,310.2" fill="none" stroke="#000000" stroke-width="1"/><polyline id="SvgjsPolyline2014" points="372.59,104.38 369.63,104.08 368.37,106.74 368.28,109.73 368.71,112.7 370.33,118.47 372.49,124.07 379.12,137.52 388.38,152.95 400.38,170.18 411.67,184.19 417.67,190.9 423.96,197.33 433,205.21 440.4,210.33 448.41,214.42 454.07,216.4 459.92,217.73 465.87,218.45 471.87,218.67 489.87,218.52 498.82,219.31 504.69,220.56 510.37,222.47 515.8,225.03 520.91,228.16 525.71,231.76 530.19,235.75 534.37,240.05 540.25,246.87 549.46,258.71 572.43,290.22 581.85,301.89 590.12,310.58 594.63,314.53 599.47,318.07" fill="none" stroke="#000000" stroke-width="1"/><polyline id="SvgjsPolyline2015" points="380.6,114.73 380.01,111.85 378.41,109.32 374.38,104.88 369.67,101.18 367.05,99.71 364.23,98.7 361.24,98.74 358.89,100.55 357.6,103.25 357.05,106.19 356.95,109.19 357.57,115.15 358.85,121.01 360.54,126.76 363.59,135.23 367.05,143.54 372.11,154.42 378.92,167.79 387.57,183.57 396.57,199.16 407.44,217.12 423.77,242.29 429.27,249.41 433.34,253.81 440.25,259.56 445.49,262.47 451.19,264.3 457.15,264.89 463.12,264.32 468.94,262.9 474.61,260.95 491.36,254.34 497.09,252.58 502.97,251.41 508.96,251.05 511.95,251.22 517.84,252.32 523.49,254.32 528.82,257.07 533.83,260.36 543.04,268.04 553.53,278.77 573.37,301.26 581.63,309.97 590.55,317.99 597.94,323.11" fill="none" stroke="#000000" stroke-width="1"/><polyline id="SvgjsPolyline2016" points="373.09,104.4 370.51,102.87 367.54,102.6 365.83,105 365.37,107.95 365.5,110.95 366.67,116.83 368.48,122.55 371.86,130.89 375.73,139.01 385.92,157.37 392.26,167.55 400.62,180.01 407.66,189.73 415.08,199.16 420.95,205.98 427.19,212.47 433.9,218.45 441.25,223.64 446.55,226.43 455.02,229.45 460.88,230.75 466.85,231.28 472.85,231.22 493.79,229.78 502.77,230.35 511.5,232.47 517.02,234.8 522.22,237.79 527.08,241.31 531.64,245.21 542.11,255.93 551.72,267.45 573.89,295.81 583.77,307.09 592.51,315.31 599.84,320.52" fill="none" stroke="#000000" stroke-width="1"/><polyline id="SvgjsPolyline2017" points="0.65,564.44 6.06,571.63 11.11,579.08 17.38,589.31 23.28,599.76" fill="none" stroke="#000000" stroke-width="1"/><polyline id="SvgjsPolyline2018" points="0.31,467.62 5.6,460.34 10.49,452.79 16.5,442.4 22.04,431.76 30.96,412.75 53.75,360.51 64.26,338.93 70.04,328.42 74.69,320.71 79.64,313.2 84.93,305.92 92.57,296.67 100.9,288.04 109.93,280.14 119.6,273.04 129.82,266.76 140.49,261.27 151.51,256.53 162.79,252.44 180.07,247.41 200.59,242.94 221.35,239.81 239.27,238.21 257.26,237.73 272.25,238.36 287.13,240.22 301.74,243.56 310.29,246.36 321.33,251.06 331.85,256.82 341.8,263.53 351.17,271.02 360.03,279.11 387.1,307.18 395.78,315.47 400.39,319.31 405.26,322.8 410.46,325.78 416.03,328.01" fill="none" stroke="#000000" stroke-width="1"/><polyline id="SvgjsPolyline2019" points="376.39,109.4 377.57,112.15 379.3,114.6 383.56,118.8 386.1,120.4 389.05,120.82 390.95,118.57 391.56,115.64 391.51,112.65 390.44,106.75 386.82,95.32 382.04,84.31 376.62,73.61 369.36,60.48 334.5,0.94" fill="none" stroke="#000000" stroke-width="1"/><polyline id="SvgjsPolyline2020" points="376.84,107.94 376.93,110.73 378.5,113.29 380.48,115.54 382.8,117.45 384.34,115.07 384.09,112.09 383.28,109.2 379.61,100.99 371.88,88.15 363.35,75.8 354.47,63.72 321.44,20.99 307.07,1.78" fill="none" stroke="#000000" stroke-width="1"/><polyline id="SvgjsPolyline2021" points="376.74,106.72 372.64,102.34 368.11,98.41 363.2,94.96 357.91,92.14 352.21,90.3 349.23,90.01 346.26,90.38 343.52,91.59 339.03,95.54 337.29,97.99 336.05,100.71 335.22,103.59 334.47,109.54 334.58,115.53 335.28,121.49 336.4,127.38 338.67,136.09 341.44,144.65 349.18,164.17 357.98,183.24 377.95,223.56 390.78,250.68 397.64,264.02 405.29,276.92 412.3,286.65 418.37,293.29 422.94,297.16 425.42,298.85 430.78,301.54 433.63,302.45 439.57,303.21 442.56,303.06 448.42,301.81 453.99,299.59 461.8,295.14 469.14,289.93 488.16,275.29 493.13,271.93 498.32,268.93 503.79,266.46 509.53,264.76 515.48,264.06 521.46,264.51 527.25,266.05 532.73,268.47 537.88,271.54 542.74,275.07 547.35,278.91 553.93,285.05 574.75,306.64 583.4,314.96 590.35,320.68 597.9,325.55" fill="none" stroke="#000000" stroke-width="1"/><polyline id="SvgjsPolyline2022" points="381.1,115.66 381.33,112.81 380.24,110.02 377.17,104.87 369.78,95.43 359.48,84.52 348.52,74.29 332.47,60.75 318.2,49.78 303.49,39.41 290.88,31.29 277.93,23.72 267.31,18.14 253.66,11.92 242.45,7.66 230.97,4.16 222.21,2.1 210.38,0.13" fill="none" stroke="#000000" stroke-width="1"/><polyline id="SvgjsPolyline2023" points="375.43,104.06 367.23,95.31 358.13,87.49 353.33,83.9 345.81,78.95 335.26,73.25 329.75,70.88 324.09,68.89 312.47,65.92 303.54,64.89 294.55,65.18 285.73,66.93 277.34,70.16 272.12,73.1 267.26,76.62 260.82,82.88 255.62,90.21 254.21,92.86 251.96,98.42 251.14,101.31 250.13,107.21 249.95,113.21 250.16,116.2 251.1,122.12 252.66,127.91 254.71,133.55 257.16,139.03 264.5,152.1 274.78,166.87 282.16,176.33 291.74,187.87 329.27,230.77 378.56,291.23 392.39,307.02 398.8,313.33 403.37,317.22 408.25,320.71 413.49,323.62 419.11,325.69 425.03,326.65 428.02,326.66 433.95,325.77 436.82,324.91 442.33,322.55 447.52,319.54 452.43,316.09 461.61,308.37 481.04,289.63 489.98,281.63 497.17,276.21 504.99,271.78 510.62,269.72 513.54,269.06 516.51,268.67 522.5,268.82 525.46,269.34 531.17,271.16 539.12,275.34" fill="none" stroke="#000000" stroke-width="1"/><polyline id="SvgjsPolyline2024" points="380.91,114.97 380.51,112.06 379.12,109.41 373.64,102.28 365.04,93.92 355.53,86.62 345.23,80.47 337,76.84 328.34,74.42 322.39,73.72 316.4,74 310.59,75.44 307.85,76.64 302.67,79.67 298.04,83.47 294.28,88.13 291.45,93.41 289.52,99.09 288.13,107.97 288.07,113.97 288.59,119.94 289.58,125.86 291.8,134.58 294.71,143.09 298.16,151.4 302,159.54 307.61,170.15 319.9,190.76 342.68,226.05 358.43,251.58 369.86,269.19 378.38,281.54 387.31,293.59 394.94,302.84 401.14,309.37 405.59,313.39 410.37,317.01 415.55,320.03 421.14,322.18 424.07,322.85 430.04,323.21 433.03,322.91 438.84,321.44 446.97,317.62 452,314.36 456.79,310.74 465.84,302.87 485.55,284.41 494.91,276.91 499.94,273.65 505.28,270.93 510.95,268.98 516.87,268.07 522.86,268.35 528.68,269.78 534.19,272.12 539.38,275.14 544.26,278.62 551.15,284.41 568.21,301.28" fill="none" stroke="#000000" stroke-width="1"/><polyline id="SvgjsPolyline2025" points="368.81,98.14 361.75,92.57 356.7,89.33 351.38,86.56 345.77,84.44 339.89,83.27 336.9,83.19 333.92,83.56 331.06,84.46 328.43,85.9 326.14,87.83 324.24,90.14 322.72,92.73 320.72,98.37 319.55,104.26 319.04,110.23 319.21,116.23 320.4,125.14 323.2,136.8 328.02,151.01 333.77,164.86 344.14,186.5 363.48,223.78 379.48,256.03 386.63,269.21 392.79,279.51 397.76,287.02 403.13,294.23 409.06,301 413.43,305.1 418.23,308.71 423.5,311.56 426.31,312.61 432.18,313.74 435.18,313.79 438.17,313.5 443.98,312.04 452.11,308.21 459.59,303.22 466.63,297.61 487.1,280.01 494.33,274.66 499.44,271.52 504.85,268.93 510.57,267.12 516.51,266.34 522.48,266.74 528.28,268.26 533.77,270.67 538.93,273.73 543.79,277.24 555.01,287.18 573.89,306.49 582.54,314.8 591.89,322.31 599.63,326.88" fill="none" stroke="#000000" stroke-width="1"/><polyline id="SvgjsPolyline2026" points="88.87,496.77 133.3,489.67 145.21,488.24 157.18,487.44 169.17,487.78 178.04,489.24 186.56,492.12 191.87,494.9 196.81,498.31 203.43,504.39 209.19,511.3 215.81,521.3 220.2,529.15 225.56,539.89 244.2,580.85 249.72,591.5 254.34,599.23" fill="none" stroke="#000000" stroke-width="1"/><polyline id="SvgjsPolyline2027" points="146.08,484.66 172.3,478.23 218.68,465.89 236.26,462.05 245.18,460.82 254.17,460.44 263.12,461.28 268.94,462.69 274.55,464.83 282.37,469.25 287.17,472.86 293.84,478.89 298.05,483.17 303.96,489.95 324.02,516.15 333.64,527.65 342.22,536.04 346.91,539.77 351.92,543.08 360,547.02 365.7,548.87 371.57,550.08 380.54,550.78 386.54,550.62 395.48,549.68 422.02,544.72 433.92,543.24 442.91,543.46 448.79,544.61 451.64,545.55 457.03,548.17 461.91,551.65 466.26,555.78 470.12,560.36 475.21,567.78 479.68,575.59 485.03,586.33 489.99,597.26" fill="none" stroke="#000000" stroke-width="1"/><polyline id="SvgjsPolyline2028" points="154,482.85 212.17,468.16 223.89,465.58 232.76,464.07 241.72,463.19 250.71,463.27 259.58,464.72 265.28,466.58 270.7,469.15 275.77,472.35 280.48,476.06 286.94,482.33 296.47,493.9 317.09,523.4 324.38,532.93 330.33,539.69 334.61,543.89 339.18,547.77 344.08,551.23 349.3,554.19 354.8,556.57 360.53,558.34 369.39,559.91 381.37,560.35 408.29,558.37 420.29,558.24 429.23,559.15 435.04,560.64 437.85,561.7 440.57,562.96 445.69,566.08 450.33,569.87 454.51,574.18 458.28,578.84 463.34,586.28 470.67,599.36" fill="none" stroke="#000000" stroke-width="1"/><polyline id="SvgjsPolyline2029" points="143.53,484.87 160.95,480.35 175.34,476.12 189.56,471.33 203.51,465.83 214.38,460.76 224.9,454.99 234.96,448.44 244.45,441.1 251.16,435.11 259.56,426.55 265.48,419.77 272.93,410.36 285.03,393.2 311.22,352.98 318.16,343.19 323.73,336.12 329.78,329.47 334.21,325.42 339.05,321.88 344.38,319.13 350.14,317.5 353.12,317.19 356.12,317.22 362.03,318.18 367.72,320.08 373.16,322.6 393.97,334.55 399.35,337.21 404.93,339.41 410.73,340.91 416.7,341.49 422.67,341.02 425.6,340.39 431.28,338.46 436.65,335.79 441.71,332.57 448.8,327.03 459.69,316.72 484.41,290.55 490.97,284.4 498,278.79 503.05,275.55 508.45,272.95 514.19,271.23 520.15,270.65 526.11,271.3 531.84,273.05 537.25,275.64 544.76,280.58 549.45,284.32 556.15,290.34 575.33,309.33 581.92,315.47 591.3,322.93 599.05,327.49" fill="none" stroke="#000000" stroke-width="1"/><polyline id="SvgjsPolyline2030" points="183.62,474.85 203.76,468.9 241,457.3 255.48,453.42 264.31,451.65 270.25,450.86 279.24,450.51 285.22,450.98 291.11,452.1 296.84,453.87 302.34,456.26 310.12,460.77 322.16,469.71 340.27,485.45 347.25,491.13 354.63,496.28 359.86,499.23 368.2,502.56 374.06,503.82 377.05,504.12 383.04,504.01 386.02,503.61 391.84,502.18 397.42,499.99 402.72,497.18 407.71,493.86 414.66,488.15 418.96,483.96 424.94,477.24 430.44,470.12 435.53,462.69 444.7,447.21 454.18,428.47 462.85,409.35 481.86,365.27 488.14,351.65 493.52,340.92 499.37,330.45 505.94,320.41 511.57,313.4 518.07,307.19 523.04,303.83 525.72,302.5 531.45,300.75 537.42,300.42 540.4,300.77 546.18,302.34 551.67,304.76 559.4,309.35 578.75,323.54 586.18,328.62 594.04,332.99 599.61,335.21" fill="none" stroke="#000000" stroke-width="1"/><polyline id="SvgjsPolyline2031" points="198.11,471.14 229.97,462.54 238.76,460.61 247.64,459.16 256.61,458.46 262.61,458.59 271.49,459.97 277.21,461.77 282.66,464.26 287.8,467.35 292.62,470.93 299.29,476.96 309.36,488.07 330.25,513.62 336.4,520.18 343.05,526.25 350.33,531.52 358.32,535.65 363.99,537.61 372.83,539.23 378.82,539.45 387.78,538.68 399.53,536.3 408.12,533.61 416.5,530.34 424.71,526.63 459.44,508.91 467.71,505.36 473.4,503.46 479.25,502.15 485.23,501.73 491.17,502.49 494.04,503.37 499.4,506.04 504.16,509.68 510.24,516.29 515.38,523.68 519.88,531.47 523.98,539.48 538.92,572.24 544.15,583.03 548.45,590.94 553.25,598.55" fill="none" stroke="#000000" stroke-width="1"/><polyline id="SvgjsPolyline2032" points="210.96,467.43 234.16,461.29 242.97,459.45 251.87,458.15 260.86,457.7 266.84,458.07 272.75,459.08 278.5,460.81 283.99,463.22 289.17,466.24 294.03,469.75 300.78,475.69 309.02,484.41 332.25,511.91 340.74,520.39 347.75,526.02 352.8,529.26 358.16,531.95 366.7,534.75 375.61,535.92 381.61,535.83 387.56,535.13 393.43,533.9 402.02,531.23 407.59,529 415.7,525.1 423.53,520.66 431.09,515.78 445.46,504.94 461.12,490.97 473.79,478.18 483.87,467.08 507.4,439.83 517.6,428.83 526.37,420.65 531.07,416.92 536.04,413.56 541.29,410.67 546.84,408.39 555.57,406.26 564.54,405.54 585.53,405.45 591.48,404.69 597.29,403.21" fill="none" stroke="#000000" stroke-width="1"/><polyline id="SvgjsPolyline2033" points="187.12,473.99 233.19,460.53 250.69,456.32 259.58,454.93 265.56,454.47 274.55,454.74 280.46,455.71 286.23,457.36 291.76,459.69 297,462.59 304.34,467.8 313.29,475.78 331.96,495.29 340.55,503.66 347.47,509.41 355,514.33 363.19,518.02 368.99,519.57 371.95,520.04 377.93,520.34 380.93,520.19 386.86,519.29 392.64,517.7 398.23,515.51 406.17,511.3 413.58,506.2 420.46,500.4 426.83,494.05 432.73,487.26 438.21,480.12 444.96,470.19 454.18,454.74 463.71,436.03 471.19,419.66 491.33,372.81 501.68,351.16 507.54,340.69 512.45,333.15 518,326.07 522.19,321.78 526.88,318.04 529.43,316.46 534.95,314.13 540.85,313.14 543.85,313.18 549.75,314.2 555.42,316.16 560.83,318.75 583.92,332.73 591.94,336.79 597.57,338.88" fill="none" stroke="#000000" stroke-width="1"/><polyline id="SvgjsPolyline2034" points="210.27,467.57 233.44,461.31 242.23,459.38 251.11,457.94 260.08,457.28 266.08,457.46 272.02,458.27 277.83,459.77 283.4,461.97 288.69,464.81 293.66,468.17 300.55,473.95 310.94,484.76 326.42,503.09 334.44,512.02 343.15,520.27 350.37,525.63 355.56,528.63 361.06,531.03 369.75,533.31 375.72,533.9 381.71,533.79 387.67,533.05 393.52,531.74 399.25,529.97 407.58,526.58 415.58,522.46 423.26,517.76 430.61,512.57 439.91,505 446.53,498.9 454.88,490.28 466.44,476.49 478.67,459.42 489.88,441.67 511.37,405.59 519.53,393 528.62,381.07 532.68,376.66 537.08,372.58 541.88,368.99 547.12,366.08 552.75,364.02 558.64,362.93 567.63,362.87 588.47,365.41 597.46,365.46" fill="none" stroke="#000000" stroke-width="1"/><polyline id="SvgjsPolyline2035" points="237.09,460.32 251.84,457.6 257.81,457.04 263.81,456.94 269.79,457.4 275.68,458.53 284.15,461.53 291.97,465.96 296.8,469.51 301.35,473.43 309.79,481.95 329.39,504.67 335.51,511.26 344.33,519.39 351.64,524.63 356.9,527.51 362.45,529.77 371.2,531.81 377.18,532.23 383.17,531.94 389.1,531.01 394.91,529.54 403.36,526.46 411.46,522.53 419.19,517.93 426.56,512.77 433.57,507.12 440.22,501.06 448.55,492.43 454.4,485.59 465.18,471.18 476.42,453.45 486.65,435.11 506.09,397.88 516.65,379.74 521.74,372.31 525.44,367.59 529.46,363.14 536.04,357.01 540.94,353.54 546.31,350.9 552.09,349.32 558.07,348.85 567,349.84 590.32,355.47 599.27,356.28" fill="none" stroke="#000000" stroke-width="1"/><polyline id="SvgjsPolyline2036" points="118.12,490.67 138.63,486.17 159.02,481.14 176.36,476.31 190.67,471.83 204.82,466.83 218.72,461.2 229.6,456.15 240.22,450.56 247.97,445.98 257.97,439.35 272.21,428.35 287.74,414.22 315.05,386.38 323.74,378.11 330.55,372.22 337.74,366.83 342.86,363.69 348.27,361.1 353.95,359.2 356.88,358.55 359.85,358.11 365.84,357.83 374.79,358.62 395.52,361.99 404.51,362.19 413.38,360.79 419.07,358.89 424.49,356.33 429.63,353.23 434.49,349.72 441.33,343.88 447.75,337.57 457.81,326.45 480.99,298.91 491.35,288.06 495.82,284.06 500.57,280.4 505.65,277.21 511.11,274.74 516.91,273.24 519.89,272.94 525.87,273.28 531.67,274.79 539.77,278.68 547.18,283.78 554.08,289.56 575.66,310.4 584.59,318.4 591.78,323.81 599.61,328.23" fill="none" stroke="#000000" stroke-width="1"/><polyline id="SvgjsPolyline2037" points="207.02,467.42 224.06,461.6 257.92,449.38 269.32,445.64 283.85,441.95 289.78,440.99 295.75,440.47 301.75,440.45 307.72,441 313.61,442.12 319.38,443.78 330.49,448.29 346.57,456.38 357.47,461.39 363.1,463.46 368.9,464.98 374.85,465.77 377.84,465.83 383.81,465.25 389.6,463.71 392.4,462.63 397.74,459.89 405.08,454.71 409.57,450.73 413.76,446.44 421.42,437.2 429.96,424.88 437.7,412.03 444.93,398.89 468.09,353.45 476.52,337.55 483.99,324.54 492.17,311.97 499.52,302.49 505.76,296.01 512.87,290.51 518.19,287.76 523.95,286.11 529.92,285.8 535.83,286.8 538.68,287.72 544.15,290.19 549.3,293.26 556.56,298.57 577.01,316.2 586.41,323.66 593.98,328.51 599.39,331.1" fill="none" stroke="#000000" stroke-width="1"/><polyline id="SvgjsPolyline2038" points="161.44,480.59 184.53,474.04 204.47,467.45 224.04,459.87 240.43,452.42 253.72,445.48 269.2,436.28 284.18,426.31 308.7,409.03 318.77,402.51 326.61,398.09 334.8,394.36 343.35,391.57 352.19,389.91 361.16,389.25 385.16,388.96 394.09,387.92 402.78,385.63 408.34,383.36 413.63,380.55 418.67,377.29 425.74,371.73 432.31,365.58 440.48,356.79 451.85,342.85 478.9,306.88 490.6,293.21 497.06,286.95 501.72,283.17 506.73,279.88 512.14,277.29 517.91,275.69 520.89,275.35 526.87,275.62 532.68,277.09 540.8,280.93 548.23,286 555.15,291.75 576.92,312.39 583.68,318.34 590.84,323.78 598.62,328.29" fill="none" stroke="#000000" stroke-width="1"/><polyline id="SvgjsPolyline2039" points="375.93,108.1 376.37,111.01 379.31,116.23 383.03,120.93 387.22,125.22 394.35,130.7 399.6,133.6 405.18,135.77 408.12,136.37 411.11,136.51 414.08,136.1 416.9,135.1 419.44,133.51 421.61,131.44 423.37,129.02 425.81,123.55 426.56,120.65 427.34,114.71 427.16,105.72 425.23,93.88 421.1,79.47 415.82,65.43 408.58,48.95 399.44,30.05 384.57,0.59" fill="none" stroke="#000000" stroke-width="1"/><polyline id="SvgjsPolyline2040" points="377.69,108.8 374.91,107.72 375.12,110.68 377.48,116.19 380.6,121.31 384.11,126.17 387.9,130.82 394.06,137.38 400.79,143.35 408.14,148.53 413.35,151.5 418.79,154.04 424.5,155.86 427.44,156.45 430.42,156.79 436.41,156.69 442.29,155.53 447.9,153.43 455.66,148.9 462.6,143.17 468.71,136.58 473.9,129.23 476.64,123.9 477.71,121.09 479.06,115.26 479.28,112.27 478.87,106.29 476.58,97.6 471.83,86.59 464.67,73.41 455.31,58.04 417.47,0.34" fill="none" stroke="#000000" stroke-width="1"/><polyline id="SvgjsPolyline2041" points="380.14,115.12 380.2,112.38 378.66,109.81 376.74,107.5 373.84,107.28 373.84,110.25 374.65,113.13 377.09,118.61 383.34,128.85 390.57,138.42 398.55,147.37 407.31,155.57 414.47,161.02 422.21,165.6 427.71,167.98 433.41,169.87 439.24,171.24 445.21,171.89 451.2,171.84 457.17,171.2 480.74,166.74 486.72,166.36 492.7,166.81 498.53,168.21 504.06,170.52 509.24,173.55 516.36,179.04 522.86,185.26 528.88,191.95 536.32,201.36 541.54,208.69 548.1,218.74 554.24,229.05 571.07,260.87 581.59,279.04 586.54,286.56 591.89,293.79 595.76,298.37 599.94,302.67" fill="none" stroke="#000000" stroke-width="1"/><polyline id="SvgjsPolyline2042" points="374.3,105.74 371.6,104.44 370.04,106.89 369.97,109.88 370.48,112.84 373.39,121.34 375.91,126.79 380.16,134.72 388.07,147.46 398.58,162.07 408.14,173.63 418.57,184.4 425.38,190.28 432.7,195.5 440.61,199.78 446.2,201.95 452,203.5 460.87,205.01 469.84,205.59 487.84,205.87 496.77,206.93 502.6,208.35 508.23,210.41 513.61,213.06 518.69,216.25 523.47,219.87 527.96,223.85 536.15,232.61 545.15,244.6 568.52,279.5 579.04,294.11 584.71,301.09 590.82,307.7 595.22,311.77 599.97,315.44" fill="none" stroke="#000000" stroke-width="1"/><polyline id="SvgjsPolyline2043" points="375.93,106.84 373.01,106.68 372.75,109.64 374.35,115.4 376.84,120.86 379.74,126.11 386.28,136.17 395.45,148.03 405.62,159.05 414.57,167.04 419.37,170.64 424.42,173.88 429.72,176.68 435.28,178.93 441.05,180.55 446.98,181.5 452.96,181.84 458.96,181.69 482.89,179.95 488.89,180.18 494.82,181.07 500.58,182.71 508.73,186.5 513.78,189.75 520.78,195.39 525.13,199.52 531.23,206.13 536.92,213.11 542.23,220.37 550.39,232.96 569.55,266.92 578.97,282.26 584.06,289.68 589.52,296.83 595.52,303.54 599.91,307.62" fill="none" stroke="#000000" stroke-width="1"/><polyline id="SvgjsPolyline2044" points="1.03,585.59 8.75,598.46" fill="none" stroke="#000000" stroke-width="1"/><polyline id="SvgjsPolyline2045" points="0.27,446.5 5.94,435.93 12.5,422.44 38.99,361.99 45.38,348.42 50.82,337.73 58.18,324.66 64.64,314.55 71.69,304.84 79.4,295.65 90.03,285.07 99.3,277.46 109.18,270.66 122.25,263.3 135.91,257.12 150,251.99 167.3,247.01 184.86,243.1 202.61,240.12 220.49,238.03 238.45,236.84 256.45,236.67 271.42,237.51 283.32,238.99 297.99,242.11 309.42,245.74 320.47,250.42 328.43,254.62 338.55,261.06 348.09,268.33 354.89,274.22 363.57,282.52 390.6,310.62 397.24,316.7 401.92,320.44 406.9,323.8 412.21,326.57 417.88,328.51 423.81,329.35 429.79,328.98 435.59,327.48 441.09,325.09 448.74,320.37 453.51,316.73 460.3,310.83 481.72,289.83 488.35,283.74 495.37,278.11 500.36,274.78 508.46,270.89 514.26,269.39 520.24,269.02 526.17,269.87 529.05,270.7 534.57,273.03 539.76,276.03 544.66,279.5 549.31,283.29 555.95,289.36 575.01,308.48 583.81,316.65 590.87,322.22 598.55,326.9" fill="none" stroke="#000000" stroke-width="1"/><polyline id="SvgjsPolyline2046" points="378.89,114.77 382.75,119.36 384.92,121.43 389.74,125 392.42,126.33 395.32,127.08 398.28,126.7 400.67,124.92 402.2,122.35 403.05,119.48 403.43,116.5 403.53,110.51 402.43,101.58 401.04,95.75 398.36,87.16 395.2,78.73 390.49,67.7 380.08,46.07 356.8,0.7" fill="none" stroke="#000000" stroke-width="1"/><polyline id="SvgjsPolyline2047" points="379.52,114.26 381.86,116.14 382.33,113.3 381.49,110.42 378.85,105.04 372.23,95.05 360.98,81 349,67.56 332.47,50.16 283.76,1.29" fill="none" stroke="#000000" stroke-width="1"/><polyline id="SvgjsPolyline2048" points="381.29,116.52 383.63,118.39 386.57,118.26 387.53,115.46 387.43,112.47 386.87,109.53 385.04,103.82 380.06,92.9 374.25,82.4 366.42,69.62 334.92,22.11 322.03,1.87" fill="none" stroke="#000000" stroke-width="1"/><polyline id="SvgjsPolyline2049" points="381.11,113.18 380.01,110.39 376.82,105.32 369.06,96.18 358.17,85.87 346.44,76.53 334.02,68.13 320.95,60.78 310.04,55.78 295.91,50.76 287.23,48.39 278.4,46.65 266.48,45.32 257.49,45.06 248.49,45.35 239.52,46.1 200.9,51.46 185.96,52.82 176.97,53.08 167.97,52.84 159.01,52.07 150.1,50.79 141.27,49.03 129.65,46.06 118.19,42.49 104.07,37.43 79.08,27.22 18.64,0.71" fill="none" stroke="#000000" stroke-width="1"/><polyline id="SvgjsPolyline2050" points="381.34,113.68 380.41,110.84 377.37,105.67 373.76,100.88 367.82,94.12 361.49,87.73 354.86,81.64 340.94,70.24 326.27,59.81 310.92,50.42 294.89,42.24 286.62,38.69 278.19,35.54 266.73,32 255.08,29.11 246.23,27.48 234.33,25.99 225.35,25.32 213.36,24.91 174.36,24.95 159.37,24.53 141.42,23.19 126.54,21.3 108.82,18.13 88.36,13.41 68.1,7.9 42.24,0.12" fill="none" stroke="#000000" stroke-width="1"/><polyline id="SvgjsPolyline2051" points="376.51,108.61 377.38,111.44 379.16,113.85 381.4,115.84 381.72,112.99 380.73,110.16 377.85,104.91 374.46,99.96 368.9,92.88 362.99,86.1 348.39,71 328.63,52.61 305.84,33.11 284.69,16.33 262.86,0.44" fill="none" stroke="#000000" stroke-width="1"/><polyline id="SvgjsPolyline2052" points="363.48,89 352.63,78.65 338.87,67.05 324.49,56.22 309.55,46.19 294.05,37.05 280.68,30.25 266.89,24.36 252.68,19.56 243.98,17.27 232.21,14.92 223.3,13.68 211.35,12.6 193.37,11.85 145.37,11.57 133.38,11.04 118.43,9.87 106.51,8.5 91.67,6.28 76.92,3.57 62.25,0.45" fill="none" stroke="#000000" stroke-width="1"/><polyline id="SvgjsPolyline2053" points="353.14,84.18 345.54,79.36 337.56,75.2 329.21,71.85 320.51,69.58 311.57,68.72 305.59,69.14 299.74,70.47 294.2,72.75 289.14,75.96 282.58,82.11 278.87,86.81 275.92,92.04 274.75,94.8 273,100.53 271.84,109.44 271.94,115.44 273.19,124.34 274.63,130.17 276.47,135.88 278.63,141.48 282.36,149.67 289.53,162.83 299.18,178.02 309.51,192.76 336.26,228.95 353.47,253.52 369.4,275.32 384.06,294.32 395.91,307.87 402.43,314.06 407.13,317.79 412.19,321.01 417.64,323.5 423.45,324.97 426.43,325.24 432.41,324.84 438.2,323.28 446.29,319.38 451.3,316.08 456.06,312.43 465.07,304.51 484.61,285.87 491.46,280.04 496.28,276.47 501.37,273.3 506.79,270.73 512.52,269 515.49,268.53 521.48,268.49 524.44,268.93 527.36,269.64 532.96,271.77 538.23,274.63 543.19,278.01 547.89,281.73 554.58,287.75" fill="none" stroke="#000000" stroke-width="1"/><polyline id="SvgjsPolyline2054" points="368.82,96.39 360.02,88.24 348.15,79.08 335.45,71.1 324.73,65.72 313.52,61.46 307.74,59.84 301.87,58.61 295.93,57.82 289.94,57.48 280.95,57.89 275.02,58.76 266.23,60.71 254.88,64.56 246.71,68.34 241.45,71.22 236.34,74.36 228.97,79.53 219.84,87.31 215.7,91.65 212.01,96.37 209.02,101.57 207.92,104.36 207.15,107.26 206.78,110.23 206.81,113.23 207.22,116.2 209.01,121.92 213.25,129.84 220.42,139.45 230.51,150.55 241.19,161.08 254.42,173.28 304.13,216.7 321.8,232.94 338.67,250 353.13,265.23 382.88,299 391.02,307.81 399.74,316.05 404.45,319.76 409.48,323.02 414.89,325.62 417.73,326.58 423.61,327.68 426.61,327.77 432.55,327.03 435.45,326.24 441,323.99 448.74,319.41 455.88,313.93 464.79,305.89 484.14,287.07 490.92,281.15 495.68,277.5 503.34,272.8 508.86,270.46 514.69,269.06 520.67,268.81 526.58,269.76 532.24,271.74 537.56,274.5 542.57,277.8 547.31,281.48 554.05,287.44 575.27,308.65 584.07,316.81 591.14,322.36 598.85,327" fill="none" stroke="#000000" stroke-width="1"/><polyline id="SvgjsPolyline2055" points="352.71,82.72 342.78,76 332.3,70.15 321.29,65.39 312.7,62.72 303.88,60.99 294.9,60.37 285.93,61 277.15,62.92 268.72,66.06 263.38,68.79 258.31,72 251.31,77.64 247.12,81.93 243.29,86.55 238.39,94.08 236,99.58 235.12,102.45 234.1,108.35 233.96,111.35 234.41,117.33 236.63,126.03 238.89,131.59 241.59,136.94 244.64,142.11 249.67,149.57 258.87,161.41 266.7,170.51 276.85,181.55 316.73,222.28 329.05,235.4 354.8,264.69 380.02,294.44 389.98,305.65 396.32,312.04 403.12,317.93 408.02,321.39 413.28,324.27 418.91,326.3 424.83,327.23 430.81,326.91 433.75,326.3 436.62,325.43 442.13,323.06 447.31,320.04 452.21,316.58 461.38,308.85 487.4,283.98 494.39,278.31 499.35,274.94 507.37,270.89 513.13,269.23 516.1,268.8 522.09,268.85 527.95,270.08" fill="none" stroke="#000000" stroke-width="1"/><polyline id="SvgjsPolyline2056" points="199.14,470.99 228.17,463.44 236.99,461.63 245.89,460.34 254.87,459.86 260.86,460.19 269.69,461.9 275.32,463.94 280.67,466.65 285.69,469.94 290.37,473.69 296.85,479.94 306.61,491.32 326.83,517.39 332.77,524.15 339.18,530.47 346.21,536.08 351.28,539.28 356.67,541.92 365.22,544.68 371.13,545.69 377.12,546.08 383.11,545.92 392.04,544.83 403.76,542.24 435.45,533.06 447.29,531.16 453.28,530.91 456.27,531.1 462.15,532.25 464.98,533.24 470.29,536.02 475.02,539.69 479.2,544 484.59,551.2 489.23,558.91 494.67,569.6 507.85,599.85" fill="none" stroke="#000000" stroke-width="1"/><polyline id="SvgjsPolyline2057" points="227.91,463.27 236.71,461.35 245.59,459.9 254.56,459.19 260.55,459.31 266.5,460.04 272.33,461.47 277.93,463.6 283.24,466.4 290.57,471.6 299.32,479.81 307.22,488.84 327.74,514.68 333.73,521.39 340.18,527.66 347.24,533.23 352.34,536.4 360.55,540.06 366.32,541.67 372.25,542.61 381.24,542.81 387.21,542.27 396.06,540.63 404.73,538.25 413.25,535.35 444,523.36 449.73,521.59 455.58,520.28 461.54,519.69 467.54,519.85 473.45,520.86 479.01,523.07 484.02,526.35 488.44,530.41 494.08,537.41 498.88,545.02 503.11,552.96 506.98,561.09 523.67,599.63" fill="none" stroke="#000000" stroke-width="1"/><polyline id="SvgjsPolyline2058" points="224.62,463.82 236.29,461.04 245.14,459.4 254.08,458.41 260.08,458.28 266.06,458.71 271.95,459.8 277.67,461.6 283.13,464.09 288.27,467.18 293.09,470.75 301.87,478.91 309.86,487.87 330.84,513.33 337.03,519.86 343.73,525.87 351.07,531.07 359.1,535.1 364.8,536.98 373.66,538.46 382.65,538.43 391.55,537.13 400.25,534.82 408.7,531.75 419.62,526.77 430.18,521.07 442.99,513.28 468.2,497.01 475.99,492.51 484.07,488.55 492.49,485.38 498.35,484.13 504.33,483.92 510.23,484.99 515.74,487.33 520.72,490.67 527.2,496.9 532.77,503.96 537.73,511.47 542.3,519.22 556.55,545.62 562.52,556.03 569.11,566.05 574.71,573.09 581.13,579.39 585.94,582.96 591.2,585.85 593.97,587 599.71,588.71" fill="none" stroke="#000000" stroke-width="1"/><polyline id="SvgjsPolyline2059" points="256.7,458.78 265.67,459.34 274.42,461.41 282.63,465.05 290.13,470.01 296.94,475.9 303.18,482.38 309.04,489.21 327.82,512.6 333.81,519.31 340.25,525.6 347.28,531.21 352.36,534.4 357.74,537.04 366.3,539.78 375.21,540.96 384.2,540.72 393.09,539.32 401.79,537.03 410.29,534.08 418.62,530.67 453.96,514.19 459.58,512.1 465.35,510.47 471.28,509.58 477.27,509.78 483.05,511.33 485.77,512.6 493.31,517.49 497.68,521.59 501.52,526.2 506.54,533.67 510.93,541.52 514.9,549.59 530.58,585.3 537.11,598.8" fill="none" stroke="#000000" stroke-width="1"/><polyline id="SvgjsPolyline2060" points="147.62,484.28 176.73,476.99 223.01,464.26 237.6,460.8 246.46,459.26 255.42,458.41 264.41,458.64 270.34,459.57 276.11,461.2 284.28,464.94 289.33,468.17 296.32,473.83 300.64,477.99 306.74,484.61 325.71,507.84 333.63,516.86 340.04,523.18 347.02,528.85 354.69,533.54 363.02,536.91 368.86,538.29 377.82,539.05 386.79,538.4 395.6,536.62 404.2,533.96 412.56,530.65 420.71,526.83 428.68,522.65 464.75,501.13 472.7,496.93 478.2,494.52 483.9,492.66 489.81,491.65 495.79,491.88 498.72,492.53 504.24,494.84 511.56,500.06 515.92,504.18 521.58,511.16 526.49,518.7 530.91,526.54 549.4,564.25 556.59,577.41 561.49,584.96 567.07,592.01 571.3,596.26 576.02,599.97" fill="none" stroke="#000000" stroke-width="1"/><polyline id="SvgjsPolyline2061" points="240.76,460.03 249.65,458.64 255.63,458.13 261.63,458.08 267.6,458.61 276.35,460.68 281.9,462.95 287.15,465.84 294.43,471.13 303.15,479.36 311.11,488.33 330.23,511.45 336.38,518.02 343.01,524.1 350.26,529.42 355.49,532.37 363.86,535.63 369.72,536.93 378.68,537.55 384.67,537.16 390.59,536.21 396.42,534.79 402.14,532.98 407.74,530.84 415.93,527.12 429.06,519.87 441.62,511.67 456.12,501.01 482.06,480.61 494.32,471.98 502.06,467.39 507.44,464.74 513.07,462.65 518.92,461.36 524.9,461.09 530.83,461.98 536.49,463.96 544.27,468.44 549.02,472.1 555.66,478.18 574.23,497.77 582.93,506.03 590.1,511.47 595.3,514.44 598.05,515.66" fill="none" stroke="#000000" stroke-width="1"/><polyline id="SvgjsPolyline2062" points="225.01,463.62 242.56,459.63 251.46,458.35 257.45,457.94 263.44,458.03 269.4,458.72 275.24,460.1 280.86,462.19 286.19,464.94 291.2,468.23 295.9,471.96 300.32,476.02 310.49,487.03 331.64,512.36 337.89,518.84 344.64,524.78 352.05,529.88 360.14,533.79 368.81,536.18 377.76,536.96 383.75,536.66 389.68,535.78 395.52,534.41 401.25,532.63 406.86,530.5 415.05,526.77 428.13,519.44 440.58,511.07 454.81,500.06 466.21,490.31 492.88,466.13 502.08,458.43 511.87,451.5 519.69,447.04 525.17,444.61 530.91,442.88 536.84,441.99 542.83,442.04 545.81,442.41 551.66,443.73 557.34,445.66 576.53,454.18 584.99,457.21 590.87,458.41 593.86,458.66 599.83,458.28" fill="none" stroke="#000000" stroke-width="1"/><polyline id="SvgjsPolyline2063" points="264.5,458 273.37,459.43 279.08,461.27 287.13,465.27 294.46,470.48 301.14,476.5 307.33,483.03 326.55,506.06 334.55,515.01 343.29,523.22 350.55,528.53 358.51,532.7 367.08,535.42 373,536.33 381.99,536.39 387.95,535.67 393.82,534.42 402.41,531.75 407.98,529.53 413.43,527.02 421.38,522.8 429.07,518.14 436.52,513.09 450.78,502.1 464.27,490.2 477.18,477.65 500.3,454.1 509.02,445.87 518.33,438.3 523.31,434.95 528.57,432.07 539.8,427.9 542.73,427.22 548.67,426.47 557.66,426.69 578.38,430.08 584.35,430.66 590.35,430.58 593.32,430.21 599.13,428.75" fill="none" stroke="#000000" stroke-width="1"/><polyline id="SvgjsPolyline2064" points="233.11,461.49 241.9,459.58 250.79,458.17 256.77,457.66 262.76,457.6 268.74,458.13 274.61,459.33 283.05,462.44 288.31,465.32 293.25,468.72 302.26,476.63 310.43,485.42 327.75,506.12 333.77,512.82 342.41,521.13 349.57,526.58 354.73,529.63 360.19,532.11 368.85,534.53 377.8,535.31 383.79,534.99 389.72,534.07 395.54,532.64 404.05,529.71 412.25,526.02 420.16,521.72 427.77,516.92 435.1,511.7 442.16,506.11 451.16,498.18 463.83,485.4 477.48,469.45 488.42,455.16 509.51,425.98 518.74,414.16 528.87,403.1 533.23,398.98 537.87,395.19 542.85,391.85 548.18,389.09 556.72,386.31 565.64,385.14 583.63,385.05 589.62,384.73 598.48,383.17" fill="none" stroke="#000000" stroke-width="1"/><polyline id="SvgjsPolyline2065" points="356.03,531.28 364.43,534.48 370.3,535.72 379.27,536.24 388.22,535.33 396.97,533.24 405.45,530.25 413.65,526.54 424.15,520.75 431.73,515.88 439.05,510.66 446.15,505.13 455.28,497.34 464.06,489.17 474.62,478.51 502.93,447.49 513.4,436.75 520.09,430.73 524.81,427.03 529.79,423.69 535.07,420.85 540.65,418.65 549.44,416.76 558.42,416.42 579.37,417.83 585.37,417.85 591.34,417.25 594.27,416.65 599.98,414.81" fill="none" stroke="#000000" stroke-width="1"/><polyline id="SvgjsPolyline2066" points="375.35,108.21 375.83,111.15 378.49,116.51 383.73,123.82 389.76,130.49 396.49,136.46 401.39,139.93 406.65,142.79 412.31,144.76 415.27,145.28 418.26,145.4 421.24,145.06 424.13,144.24 429.54,141.68 432.04,140.02 434.28,138.03 437.98,133.32 440.63,127.95 442.33,122.2 443.39,113.28 443.28,107.28 442.64,101.32 440.15,89.58 436.53,78.14 430.97,64.21 423.38,47.9 413.8,29.21 398.15,0.16" fill="none" stroke="#000000" stroke-width="1"/><polyline id="SvgjsPolyline2067" points="376.12,110.21 377.31,112.96 378.87,115.52 384.55,122.49 391.29,128.44 396.38,131.59 399.14,132.77 402.04,133.53 405.03,133.66 407.94,132.97 410.49,131.4 412.51,129.18 413.98,126.58 415.01,123.76 416.03,117.86 415.86,108.87 415.01,102.93 413.75,97.07 409.58,82.67 404.33,68.62 397.11,52.13 371.99,0.96" fill="none" stroke="#000000" stroke-width="1"/><polyline id="SvgjsPolyline2068" points="375.34,110.95 377.8,116.41 382.74,123.93 388.44,130.89 394.72,137.33 401.61,143.12 409.17,147.99 414.63,150.47 420.4,152.06 426.38,152.47 432.29,151.51 435.12,150.52 440.36,147.62 444.93,143.74 450.53,136.71 453.55,131.54 455.8,125.98 456.62,123.09 457.67,117.19 457.99,111.2 457.64,105.21 456.74,99.28 455.39,93.44 451.69,82.03 445.83,68.22 437.77,52.13 426.11,31.16 407.92,0.09" fill="none" stroke="#000000" stroke-width="1"/><polyline id="SvgjsPolyline2069" points="377.13,108.39 374.42,107.13 374.3,110.08 376.32,115.71 379.17,120.99 382.43,126.03 385.96,130.88 391.67,137.83 400.01,146.46 409.23,154.12 416.83,158.93 425.08,162.5 430.9,163.95 436.87,164.51 442.85,164.17 448.74,163.02 457.26,160.16 479.21,150.46 484.95,148.73 487.91,148.23 493.89,148.27 499.67,149.83 504.97,152.62 509.8,156.17 516.37,162.31 524.3,171.32 533.36,183.27 541.78,195.68 549.7,208.42 557.16,221.43 562.78,232.03 576.11,258.91 583.32,272.06 591.32,284.74 598.67,294.22" fill="none" stroke="#000000" stroke-width="1"/><polyline id="SvgjsPolyline2070" points="374.39,108.69 374.95,111.62 376.03,114.42 380.41,122.28 387.5,131.95 395.51,140.88 404.42,148.91 411.77,154.09 419.78,158.17 425.48,160.03 431.4,160.99 437.39,160.95 443.3,159.92 448.99,158.05 454.43,155.53 459.62,152.51 464.6,149.17 479.05,138.44 486.84,133.94 489.61,132.8 492.53,132.13 495.52,132.13 498.43,132.84 501.14,134.12 503.64,135.78 510.24,141.88 517.96,151.06 528.5,165.65 539.97,183.24 550.78,201.24 559.54,216.96 566.44,230.28 578.16,254.6 585.15,267.87 591.3,278.18 598.22,287.97" fill="none" stroke="#000000" stroke-width="1"/><polyline id="SvgjsPolyline2071" points="377.33,108.7 374.85,107.01 374.58,109.91 375.43,112.79 378.04,118.18 381.2,123.28 386.54,130.53 392.41,137.35 396.6,141.64 405.68,149.47 413.2,154.41 421.38,158.12 424.25,158.99 430.16,160.02 436.15,160.02 439.13,159.63 444.93,158.15 453.13,154.47 460.67,149.57 465.38,145.85 472.06,139.82 482.41,128.97 486.32,124.41 489.84,119.56 492.08,114.01 492.41,111.04 491.87,108.09 490.81,105.29 488.05,99.96 483.36,92.28 468.35,69.84 420.46,0.83" fill="none" stroke="#000000" stroke-width="1"/><polyline id="SvgjsPolyline2072" points="0.38,420.03 21.91,370.5 30.65,351.41 36,340.67 41.71,330.12 51.18,314.81 58.21,305.09 63.92,298.13 70.02,291.52 76.51,285.29 83.39,279.49 90.63,274.14 98.18,269.25 106.01,264.82 116.81,259.58 130.74,254.03 145.01,249.42 159.52,245.61 174.19,242.5 191.94,239.55 206.83,237.72 224.77,236.26 239.76,235.68 254.76,235.77 269.73,236.69 281.63,238.21 293.39,240.57 304.92,243.88 316.11,248.21 324.2,252.14" fill="none" stroke="#000000" stroke-width="1"/><polyline id="SvgjsPolyline2073" points="380.96,112.76 378.22,107.45 374.64,102.64 370.7,98.12 362.14,89.7 350.58,80.16 338.24,71.64 327.85,65.63 317.02,60.47 305.76,56.33 294.13,53.43 285.22,52.18 276.23,51.76 264.26,52.49 255.37,53.9 243.7,56.67 232.2,60.09 203.66,69.32 189.09,72.9 180.19,74.17 171.2,74.58 165.21,74.31 156.29,73.14 147.52,71.14 136.09,67.47 124.96,63.01 114.05,58.01 90.02,45.7 32.02,14.21 5.26,0.64" fill="none" stroke="#000000" stroke-width="1"/><polyline id="SvgjsPolyline2074" points="381.31,114.6 380.7,111.69 377.77,106.47 374.18,101.66 370.27,97.11 359.64,86.53 345.83,75 333.64,66.26 318.28,56.88 310.31,52.7 302.15,48.91 288.14,43.58 279.5,41.05 270.72,39.07 261.84,37.63 249.89,36.55 231.9,36.38 192.95,38.37 174.95,38.64 156.98,37.68 139.15,35.3 118.62,30.89 95.56,24.25 72.84,16.52 30.65,0.89" fill="none" stroke="#000000" stroke-width="1"/><polyline id="SvgjsPolyline2075" points="352.98,82.3 343.21,75.33 332.96,69.1 322.23,63.73 313.88,60.38 302.38,57 293.52,55.43 284.54,54.78 275.55,55.09 266.64,56.33 257.89,58.4 249.33,61.18 240.98,64.53 224.8,72.4 188.15,92.92 180.14,97.01 174.64,99.41 168.93,101.25 165.98,101.8 160,101.81 157.06,101.23 154.19,100.36 148.68,97.99 135.68,90.53 120.62,80.67 73.43,48.69 50.85,33.9 25.37,18.06 1.97,4.59" fill="none" stroke="#000000" stroke-width="1"/><polyline id="SvgjsPolyline2076" points="380.09,110.77 376.89,105.71 373.12,101.04 369.04,96.65 362.51,90.45 350.82,81.07 338.27,72.85 330.36,68.57 324.93,66.02 313.69,61.83 307.9,60.26 302.02,59.1 296.06,58.38 290.07,58.14 284.07,58.4 278.13,59.17 272.26,60.43 263.7,63.19 258.19,65.55 250.26,69.8 245.23,73.07 240.43,76.67 235.9,80.6 231.7,84.89 226.3,92.07 223.59,97.42 222.6,100.25 221.2,106.08 220.69,112.05 220.9,115.04 222.11,120.91 224.18,126.54 226.87,131.9 233.41,141.95 238.95,149.04 244.82,155.87 252.97,164.67 265.67,177.43 311.53,220.62 324.35,233.25 352.95,264.01 382.45,297.99 390.53,306.86 396.93,313.18 401.46,317.12 408.8,322.31 414.14,325.04 416.95,326.09 422.8,327.37 425.79,327.56 431.76,327.01 434.67,326.3 440.28,324.18 448.08,319.72 457.57,312.38 466.4,304.26 483.59,287.51 490.34,281.56 495.08,277.88 502.69,273.09 508.17,270.66 513.96,269.13 519.94,268.74 525.87,269.55 531.57,271.43 536.93,274.11 544.39,279.13 555.69,288.98 574.74,308.12 583.5,316.31 590.54,321.92 598.18,326.65" fill="none" stroke="#000000" stroke-width="1"/><polyline id="SvgjsPolyline2077" points="380.93,115.27 380.81,112.38 377.94,107.13 374.31,102.35 368.23,95.72 361.68,89.55 354.77,83.79 347.55,78.41 340.05,73.45 326.93,66.18 318.7,62.55 313.07,60.48 307.33,58.73 298.54,56.81 292.59,56.02 286.6,55.67 280.61,55.77 274.63,56.31 268.71,57.27 259.98,59.45 254.29,61.34 245.96,64.73 237.87,68.68 230.01,73.07 219.89,79.52 212.59,84.78 205.65,90.5 201.38,94.71 197.72,99.46 196.32,102.11 194.43,107.8 194.01,110.76 194.15,113.75 194.8,116.68 195.85,119.49 198.76,124.73 204.21,131.88 214.53,142.76 227.74,154.98 241.36,166.76 299.2,214.49 317.32,230.23 334.6,246.88 351.4,264.02 363.56,277.29 385.36,302.07 393.66,310.72 402.67,318.64 407.59,322.08 412.86,324.93 415.64,326.07 421.44,327.57 427.42,327.87 430.4,327.56 436.21,326.1 444.35,322.29 451.81,317.26 458.74,311.53 482.5,288.63 491.51,280.71 498.79,275.43 506.76,271.26 512.48,269.48 518.43,268.78 524.4,269.29 527.31,269.98 532.93,272.07" fill="none" stroke="#000000" stroke-width="1"/><polyline id="SvgjsPolyline2078" points="241.43,459.95 253.32,458.34 259.31,458.12 265.3,458.44 274.13,460.14 279.77,462.17 285.13,464.85 292.57,469.9 301.47,477.95 309.52,486.84 330.56,512.26 336.73,518.81 343.39,524.86 350.68,530.12 358.67,534.24 367.26,536.88 376.19,537.93 385.17,537.51 394.01,535.86 402.63,533.27 413.73,528.72 424.4,523.24 437.24,515.49 449.65,507.06 476.39,487.72 489.07,479.73 497.21,475.91 502.95,474.19 508.9,473.51 514.86,474.14 520.62,475.8 526.06,478.3 531.01,481.68 537.58,487.82 541.52,492.35 546.95,499.52 568.26,532.18 577.18,544.23 583.24,550.89 587.69,554.91 592.52,558.45 597.76,561.37" fill="none" stroke="#000000" stroke-width="1"/><polyline id="SvgjsPolyline2079" points="277.51,461.33 282.99,463.77 288.16,466.82 293,470.36 299.72,476.34 309.85,487.39 330.88,512.82 337.07,519.35 343.77,525.36 351.1,530.57 359.13,534.6 367.75,537.16 373.69,537.97 382.68,537.94 391.57,536.61 400.26,534.27 408.7,531.15 422.23,524.69 435.19,517.15 447.72,508.9 474.76,489.98 482.38,485.19 487.63,482.3 495.92,478.82 501.75,477.44 507.74,477.21 513.61,478.37 519.08,480.82 524.02,484.22 528.44,488.26 534.33,495.06 539.56,502.38 544.38,509.98 564.1,543.63 569.11,551.1 574.63,558.21 580.87,564.68 585.54,568.45 593.23,573.11 598.71,575.55" fill="none" stroke="#000000" stroke-width="1"/><polyline id="SvgjsPolyline2080" points="430.16,521.37 440.47,515.24 468.44,497.72 476.36,493.45 481.84,491.01 487.54,489.15 493.45,488.17 499.43,488.44 505.17,490.14 510.39,493.07 515.02,496.88 519.13,501.25 524.54,508.43 529.31,516.06 533.67,523.94 548.37,553.48 553.96,564.1 560.14,574.38 565.44,581.65 571.55,588.24 576.2,592.03 578.71,593.67 584.06,596.38 586.88,597.41 595.58,599.68" fill="none" stroke="#000000" stroke-width="1"/><polyline id="SvgjsPolyline2081" points="247.67,458.83 253.63,458.18 259.63,457.95 268.59,458.64 277.3,460.85 282.82,463.2 288.03,466.17 295.25,471.54 303.92,479.83 309.92,486.53 331.03,511.89 337.24,518.41 343.93,524.42 351.27,529.62 359.3,533.65 365,535.53 373.86,537 379.86,537.11 385.84,536.6 391.74,535.55 397.55,534.03 403.24,532.13 411.55,528.69 424.83,521.73 437.47,513.66 451.94,502.96 465.83,491.51 488.5,471.86 500.26,462.56 505.21,459.17 510.38,456.13 515.81,453.58 521.52,451.76 527.45,450.9 533.44,451.17 539.28,452.5 547.61,455.9 552.9,458.72 557.96,461.95 574.91,474.35 582.41,479.31 590.45,483.34 596.18,485.09 599.14,485.57" fill="none" stroke="#000000" stroke-width="1"/><polyline id="SvgjsPolyline2082" points="477.52,484.49 492.15,474.01 499.96,469.54 505.46,467.15 511.23,465.52 517.19,464.97 523.13,465.69 528.8,467.64 531.47,469 536.49,472.29 541.09,476.13 545.37,480.34 553.22,489.41 573.46,515.47 581.4,524.46 585.72,528.63 590.36,532.43 598.01,537.14" fill="none" stroke="#000000" stroke-width="1"/><polyline id="SvgjsPolyline2083" points="449.82,504.97 461.56,495.63 486.84,474.42 498.79,465.37 506.44,460.63 511.84,458.02 517.52,456.1 523.43,455.13 526.43,455.07 532.37,455.84 538.07,457.69 543.44,460.36 548.48,463.6 553.25,467.24 573.4,485.21 580.41,490.84 588.02,495.63 593.44,498.2 599.12,500.12" fill="none" stroke="#000000" stroke-width="1"/><polyline id="SvgjsPolyline2084" points="424.25,521.38 431.87,516.59 439.27,511.46 446.45,506.04 455.73,498.44 469.13,486.41 494.95,461.33 508.32,449.29 517.98,442.18 525.88,437.87 531.5,435.79 537.36,434.53 540.34,434.25 546.34,434.34 555.2,435.86 575.32,441.86 584.13,443.68 590.1,444.25 593.1,444.18 599.01,443.24" fill="none" stroke="#000000" stroke-width="1"/><polyline id="SvgjsPolyline2085" points="246.25,459.02 258.19,457.93 267.17,458.4 275.94,460.34 281.53,462.52 286.82,465.34 294.16,470.54 302.95,478.7 310.96,487.63 330.12,510.72 336.26,517.29 342.87,523.4 350.1,528.74 358.03,532.99 366.57,535.78 375.48,536.97 381.48,536.9 387.44,536.23 393.32,535.04 399.09,533.41 404.74,531.41 413,527.84 426.19,520.71 438.74,512.5 453.09,501.63 466.84,490.01 491.42,468 503.04,458.53 513.06,451.93 518.44,449.29 524.11,447.32 530.01,446.27 533,446.13 538.97,446.66 544.79,448.12 550.37,450.32 555.73,453 573.79,463.72 581.84,467.73 587.51,469.67 590.45,470.3 596.4,471 599.4,471.05" fill="none" stroke="#000000" stroke-width="1"/><polyline id="SvgjsPolyline2086" points="484.71,126.71 492.58,117.65 493.42,114.79 496.23,115.24 498.57,117.09 504.48,123.87 508.1,128.66 516.63,140.99 526.47,156.07 536.02,171.33 546.78,189.35 557.1,207.65 564.13,220.9 579.82,253.29 585.32,263.96 592.89,276.9 599.82,286.69" fill="none" stroke="#000000" stroke-width="1"/><polyline id="SvgjsPolyline2087" points="598.43,82.97 592.25,76.43 587.7,72.53 582.79,69.09 577.51,66.25 571.89,64.17 566,63.02 560.01,62.93 554.09,63.89 548.4,65.75 542.98,68.33 537.87,71.46 533.02,74.99 528.4,78.82 521.82,84.96 505.5,102.55 501.22,106.76 498.67,108.21 496.11,106.87 490.52,99.83 421.46,1.7" fill="none" stroke="#000000" stroke-width="1"/><polyline id="SvgjsPolyline2088" points="0.2,390.59 15.93,354.9 22.54,341.44 28.23,330.87 34.37,320.56 41.05,310.59 48.36,301.08 56.35,292.14 65.05,283.87 72.02,278.18 81.84,271.29 92.19,265.22 102.96,259.93 114.05,255.35 125.38,251.4 136.88,248 154.38,243.78 175.03,239.98 192.87,237.57 213.78,235.68 231.76,234.84 249.76,234.84 267.72,235.92 282.58,237.92 294.31,240.46 305.79,243.93 316.92,248.4 327.6,253.88 337.73,260.3 347.3,267.53 358.52,277.48 369.11,288.1" fill="none" stroke="#000000" stroke-width="1"/><polyline id="SvgjsPolyline2089" points="355.79,84.43 346.19,77.23 336.11,70.72 325.56,65.01 317.35,61.34 306.01,57.43 297.25,55.37 288.34,54.16 279.34,53.86 270.37,54.48 264.44,55.37 255.66,57.34 247.05,59.96 233.06,65.35 200.16,79.98 191.71,83.07 185.95,84.72 177.09,86.29 168.1,86.64 162.12,86.27 156.2,85.3 147.53,82.9 139.13,79.68 130.95,75.93 120.29,70.41 99.47,58.48 40.31,22.97 19.43,11.14 0.89,1.28" fill="none" stroke="#000000" stroke-width="1"/><polyline id="SvgjsPolyline2090" points="373.85,101.79 369.84,97.33 363.4,91.05 351.86,81.47 339.49,72.99 326.37,65.73 315.35,61.01 303.88,57.5 298,56.28 292.06,55.46 286.08,55.05 280.08,55.08 274.1,55.54 268.16,56.42 256.52,59.28 245.24,63.37 231.66,69.74 213.39,80.07 200.68,88.04 190.72,94.73 185.89,98.3 181.45,102.32 179.7,104.75 178.82,107.6 179.19,113.57 180.2,116.38 183.49,121.39 187.47,125.88 191.74,130.09 200.68,138.09 216.86,151.48 292.42,210.69 304.08,220.13 317.76,231.82 337.37,250.38 352.15,265.3 390.35,307.6 399.05,315.86 406.19,321.33 414.09,325.6 419.81,327.38 425.77,328.02 428.76,327.87 434.64,326.69 437.48,325.71 442.91,323.17 450.47,318.31 457.49,312.68 468.45,302.44" fill="none" stroke="#000000" stroke-width="1"/><polyline id="SvgjsPolyline2091" points="158.62,109.96 165.31,115.94 172.43,121.45 285.19,206.1 304.05,220.94 315.56,230.55 331.05,244.73 348.21,261.51 360.59,274.58 388.59,305.88 397.15,314.29 404.12,319.97 411.8,324.64 417.38,326.83 423.26,327.96 429.25,327.86 435.1,326.59 440.67,324.36 448.42,319.8 455.57,314.34" fill="none" stroke="#000000" stroke-width="1"/><polyline id="SvgjsPolyline2092" points="2.74,162.34 26.33,157.95 49.76,152.76 70.08,147.44 90.15,141.27 112.68,133.02 123.74,128.37 134.62,123.3 142.5,118.95 144.82,117.06 145.66,114.23 144.88,111.36 141.89,106.17 137.98,101.63 131.37,95.53 124.45,89.77 105.47,75.09 78.79,55.66 51.62,36.93 26.43,20.65 0.64,5.32" fill="none" stroke="#000000" stroke-width="1"/><polyline id="SvgjsPolyline2093" points="599.93,84.96 593.94,78.24 589.52,74.2 582.21,68.96 576.87,66.23 571.2,64.28 565.29,63.32 559.3,63.42 553.41,64.57 547.78,66.62 539.9,70.95 532.7,76.34 526.09,82.44 520.03,89.1 514.75,96.37 512.14,101.76 511.35,104.66 511.01,107.63 511.1,110.63 512.66,119.48 514.64,125.14 518.39,133.32 525.46,146.55 547.78,185.62 560.74,209.31 568.97,225.32 580.55,249.7 587.35,263.07 593.34,273.47 598.31,280.97" fill="none" stroke="#000000" stroke-width="1"/><polyline id="SvgjsPolyline2094" points="599.96,68.1 594.67,60.82 589.05,53.79 583.05,47.09 576.66,40.75 569.85,34.87 565.06,31.25 560.06,27.94 552.14,23.66 546.61,21.36 540.89,19.54 532.07,17.77 523.11,16.98 499.12,16.58 490.17,15.69 484.27,14.58 478.48,13.01 470.07,9.83 462.03,5.78 454.37,1.07" fill="none" stroke="#000000" stroke-width="1"/><polyline id="SvgjsPolyline2095" points="599.88,78.21 596.16,73.51 590.09,66.87 585.72,62.76 581.08,58.95 576.16,55.52 570.96,52.53 565.55,49.94 559.96,47.77 551.22,45.66 542.26,44.96 533.27,45.4 512.4,47.73 503.41,47.69 494.54,46.22 488.83,44.4 483.34,41.98 478.09,39.08 473.06,35.81 461.29,26.53 448.23,14.14 435.94,0.99" fill="none" stroke="#000000" stroke-width="1"/><polyline id="SvgjsPolyline2096" points="598.3,79.5 590.15,70.71 585.62,66.77 580.79,63.22 575.63,60.15 570.17,57.68 564.43,55.93 561.49,55.36 555.52,54.83 546.56,55.51 534.89,58.29 517.67,63.54 508.83,65.17 502.84,65.22 499.86,64.85 496.93,64.21 491.28,62.21 485.97,59.44 478.56,54.33 471.68,48.53 465.17,42.32 456.89,33.64 448.91,24.67 429.86,1.5" fill="none" stroke="#000000" stroke-width="1"/><polyline id="SvgjsPolyline2097" points="598.87,82.31 594.92,77.8 590.64,73.6 586.03,69.76 581.08,66.37 575.79,63.56 570.17,61.47 564.3,60.26 561.31,60.01 558.31,60 552.35,60.69 543.72,63.18 535.52,66.88 519.68,75.43 514.15,77.75 508.38,79.37 502.42,79.96 499.45,79.62 493.76,77.75 488.57,74.76 483.8,71.12 477.18,65.03 468.96,56.29 461.12,47.2 449.78,33.22 426.18,2.18" fill="none" stroke="#000000" stroke-width="1"/><polyline id="SvgjsPolyline2098" points="1.23,358.13 11.87,336.62 17.75,326.16 22.48,318.51 29.28,308.62 34.81,301.52 40.71,294.73 47.01,288.3 53.7,282.29 60.77,276.71 68.17,271.6 75.87,266.94 83.82,262.73 94.75,257.77 105.95,253.48 114.5,250.66 128.94,246.6 143.55,243.23 158.29,240.46 176.1,237.82 193.99,235.88 211.94,234.57 226.93,233.98 244.93,233.97 259.91,234.69 271.85,235.87 283.7,237.74 292.49,239.69 303.99,243.09 312.41,246.27 320.6,250.01 331.08,255.84" fill="none" stroke="#000000" stroke-width="1"/><polyline id="SvgjsPolyline2099" points="1.24,162.7 33.67,156.59 51.23,152.63 65.77,148.94 91.66,141.3 131.3,127.43 139.96,124.99 145.89,124.11 148.89,124.02 154.85,124.62 160.7,125.93 169.18,128.95 177.25,132.93 187.62,138.96 202.74,148.72 227.46,165.72 259.22,188.35 285.83,207.87 304.84,222.51 323.18,237.99 347.1,260.72 359.56,273.7 383.54,300.56 393.92,311.38 402.99,319.23 410.55,324.09 416.05,326.48 418.93,327.31 424.86,328.12 427.86,328.05 433.76,327.03 436.62,326.12 442.1,323.69 449.73,318.92 456.79,313.34 463.46,307.31 487.21,284.4" fill="none" stroke="#000000" stroke-width="1"/><polyline id="SvgjsPolyline2100" points="0.76,150.51 11.81,145.85 19.75,141.62 27.17,136.53 31.61,132.51 35.43,127.89 38.34,122.65 40.09,116.92 40.58,110.95 39.95,104.99 38.45,99.19 35.04,90.87 30.69,82.99 25.72,75.49 18.46,65.94 10.67,56.82 0.4,45.88" fill="none" stroke="#000000" stroke-width="1"/><polyline id="SvgjsPolyline2101" points="1.84,156.41 16.23,152.18 30.28,146.95 43.72,140.3 51.26,135.41 57.94,129.39 61.53,124.6 64.03,119.16 65.16,113.28 65.19,110.28 64.9,107.3 63.53,101.46 60.06,93.17 55.5,85.41 48.45,75.71 38.67,64.34 28.23,53.57 15.1,41.26 1.46,29.51" fill="none" stroke="#000000" stroke-width="1"/><polyline id="SvgjsPolyline2102" points="2.36,159.32 22.77,154.42 40,149.22 53.99,143.81 64.67,138.37 74.53,131.53 78.9,127.43 80.82,125.13 83.86,119.97 84.86,117.15 85.44,114.21 85.61,111.21 85.38,108.22 83.96,102.4 80.18,94.25 77,89.16 73.48,84.3 65.78,75.11 53.22,62.21 37.68,48.09 21.51,34.7 2.4,20.19" fill="none" stroke="#000000" stroke-width="1"/><polyline id="SvgjsPolyline2103" points="2.89,160.81 26.36,155.8 46.66,150.43 63.74,144.77 77.54,138.89 82.84,136.08 87.91,132.88 92.6,129.14 96.79,124.86 100.26,119.98 101.45,117.23 102.18,114.32 102.4,111.33 102.15,108.35 100.49,102.6 96.23,94.68 88.94,85.16 82.87,78.52 76.5,72.16 60.91,58.1 42.31,42.93 20.68,26.78 0.88,13.21" fill="none" stroke="#000000" stroke-width="1"/><polyline id="SvgjsPolyline2104" points="0.84,162.01 27.33,156.79 50.65,151.12 70.76,145.07 87.59,138.7 95.74,134.89 100.99,132 108.3,126.77 112.28,122.29 115.07,116.99 115.93,114.12 116.16,111.14 115.81,108.16 113.77,102.54 108.92,94.97 105.11,90.34 98.94,83.78 85.75,71.54 67.26,56.24 45.76,39.92 21.18,22.72 0.99,9.74" fill="none" stroke="#000000" stroke-width="1"/><polyline id="SvgjsPolyline2105" points="0.15,162.6 26.68,157.61 50.08,152.29 70.34,146.77 90.3,140.23 107,133.53 115.09,129.6 120.29,126.61 125.12,123.05 127.21,120.9 128.8,118.36 129.55,115.47 129.28,109.5 128.43,106.62 125.51,101.4 121.79,96.7 117.69,92.31 111.18,86.1 102.13,78.23 78.61,59.6 54.38,41.91 27.07,23.4 1.56,7.61" fill="none" stroke="#000000" stroke-width="1"/><polyline id="SvgjsPolyline2106" points="598.29,95.88 595.85,94.14 593.17,92.8 587.36,91.35 584.37,91.3 581.48,92.06 578.92,93.62 576.86,95.79 575.3,98.35 574.19,101.13 572.98,107 572.77,112.99 573.26,118.97 574.92,127.81 577.38,136.46 580.41,144.94 585.1,155.98 589.01,164.09 599.18,182.45" fill="none" stroke="#000000" stroke-width="1"/><polyline id="SvgjsPolyline2107" points="598.42,90.37 593.99,86.33 591.57,84.56 586.29,81.72 583.45,80.76 580.51,80.21 574.51,80.11 571.55,80.53 568.69,81.43 566.02,82.79 563.59,84.55 561.44,86.64 557.99,91.53 556.67,94.22 554.78,99.91 553.77,105.82 553.48,111.81 554.13,120.78 556.46,132.54 559.91,144.03 564.09,155.28 569.98,169.07 577.67,185.35 588.56,206.74 599.94,227.87" fill="none" stroke="#000000" stroke-width="1"/><polyline id="SvgjsPolyline2108" points="598.47,86.41 594.29,82.11 589.69,78.26 584.66,74.99 579.2,72.52 573.38,71.13 570.38,70.92 564.44,71.62 561.58,72.51 556.25,75.25 551.43,78.82 547.14,83 543.58,87.82 540.79,93.13 538.79,98.78 537.58,104.65 537.13,110.63 537.68,119.61 539.37,128.44 542.8,139.94 548.23,153.92 554.35,167.61 562.16,183.83 592.64,245.73 599.69,258.97" fill="none" stroke="#000000" stroke-width="1"/><polyline id="SvgjsPolyline2109" points="598.51,84.28 592.26,77.82 587.63,74 582.62,70.72 577.22,68.11 571.48,66.39 565.52,65.76 559.56,66.32 553.8,68 548.41,70.62 541.15,75.91 534.94,82.41 531.47,87.3 528.64,92.58 526.6,98.22 524.79,107.03 524.57,113.02 525.17,118.99 527.21,127.75 531.25,139.04 536.1,150.01 544.07,166.15 568.94,214.09 588.48,254.61 594.17,265.18 598.87,272.85" fill="none" stroke="#000000" stroke-width="1"/><polyline id="SvgjsPolyline2110" points="599.85,48.55 591.5,36.1 582.61,24.02 573.15,12.37 563.05,1.29" fill="none" stroke="#000000" stroke-width="1"/><polyline id="SvgjsPolyline2111" points="598.34,56.05 589.41,44 581.68,34.83 573.39,26.15 564.44,18.16 554.76,11.08 547.06,6.44 538.85,2.76 530.21,0.27" fill="none" stroke="#000000" stroke-width="1"/><polyline id="SvgjsPolyline2112" points="600,72.39 590.6,60.71 584.35,54.24 579.91,50.2 570.34,42.97 565.19,39.9 559.8,37.27 551.31,34.32 545.44,33.05 539.51,32.19 530.53,31.58 509.54,31.9 503.54,31.72 494.61,30.68 485.88,28.5 480.26,26.41 474.82,23.88 464.51,17.75 454.87,10.61 443.54,0.79" fill="none" stroke="#000000" stroke-width="1"/><polyline id="SvgjsPolyline2113" points="598.72,58.48 593.44,51.19 585.92,41.85 579.91,35.15 573.56,28.77 566.82,22.81 559.63,17.4 551.95,12.72 546.54,10.13 538.04,7.2 529.21,5.5 520.23,4.87 496.23,5 487.25,4.58 478.34,3.3 472.52,1.87 466.82,0" fill="none" stroke="#000000" stroke-width="1"/><polyline id="SvgjsPolyline2114" points="1.29,330.96 9.04,318.12 15.87,308.25 25.31,296.61 33.65,287.99 42.69,280.09 52.36,272.99 62.58,266.72 73.25,261.23 87.06,255.38 101.24,250.51 118.6,245.73 133.24,242.49 150.96,239.33 168.79,236.88 189.69,234.81 210.65,233.51 228.64,233.06 243.64,233.23 258.61,234.03 270.55,235.26 282.4,237.14 294.09,239.82 305.54,243.42 313.9,246.74 322.03,250.61 332.42,256.59 342.27,263.44 349.29,269.07 362.51,281.28 385.28,305.16 393.83,313.58" fill="none" stroke="#000000" stroke-width="1"/><polyline id="SvgjsPolyline2115" points="0.19,174.69 36.16,173.08 66.15,172.38 90.15,172.57 114.12,173.74 137.99,176.16 158.73,179.43 179.27,183.79 202.45,190.01 216.76,194.5 233.76,200.43 247.76,205.79 264.38,212.72 278.03,218.94 291.45,225.64 301.96,231.42 312.2,237.67 329.39,249.73 343.4,261.03 352.28,269.1 360.8,277.54 385.28,303.94 393.73,312.45 402.89,320.2 407.88,323.52 413.23,326.23 418.94,328.06 424.88,328.78 430.85,328.26 436.62,326.64 442.07,324.15 447.21,321.06 454.42,315.67 461.18,309.74" fill="none" stroke="#000000" stroke-width="1"/><polyline id="SvgjsPolyline2116" points="0.21,167.67 74.76,159.46 95.7,157.87 113.69,157.33 131.67,157.95 149.55,160.01 164.26,162.91 181.61,167.68 195.8,172.56 209.74,178.08 226.2,185.37 242.4,193.22 261.02,202.92 279.34,213.19 294.74,222.5 307.28,230.74 314.61,235.95 324.11,243.28 342.46,258.74 351.22,266.94 359.68,275.46 383.98,302.01 392.32,310.64 401.29,318.6 406.16,322.1 411.37,325.07 416.95,327.27 422.83,328.42 428.82,328.35 434.68,327.11 440.25,324.91 445.5,322.01 450.46,318.63 457.45,312.97" fill="none" stroke="#000000" stroke-width="1"/><polyline id="SvgjsPolyline2117" points="0.08,164.52 35.63,158.82 97.59,147.43 109.46,145.69 124.39,144.27 139.38,144.07 151.32,145.2 160.17,146.85 165.99,148.31 180.23,152.99 191.32,157.58 204.86,164.02 218.13,171.01 233.8,179.88 254.36,192.25 272.11,203.47 289.61,215.08 301.89,223.7 311.51,230.87 320.87,238.38 334.46,250.18 345.48,260.35 360.25,275.28 386.43,304.19 397.09,314.73 404.09,320.38 409.14,323.62 414.55,326.2 420.31,327.85" fill="none" stroke="#000000" stroke-width="1"/><polyline id="SvgjsPolyline2118" points="1.69,137.23 6,133.06 7.92,130.76 11.14,125.7 13.33,120.13 14.39,114.23 14.49,111.24 14.35,108.24 13.4,102.32 10.72,93.74 6.98,85.55 0.94,75.19" fill="none" stroke="#000000" stroke-width="1"/><polyline id="SvgjsPolyline2119" points="1.84,146.52 7.07,143.6 12.05,140.25 16.63,136.38 20.59,131.88 23.65,126.73 24.76,123.95 26.37,118.17 27.07,112.22 26.69,106.24 25.42,100.38 23.5,94.7 21.07,89.21 16.77,81.31 11.88,73.75 0.97,59.44" fill="none" stroke="#000000" stroke-width="1"/><polyline id="SvgjsPolyline2120" points="1.68,154.83 15.91,150.09 26.94,145.38 34.83,141.05 42.08,135.74 46.27,131.45 48.06,129.04 50.81,123.73 52.24,117.91 52.65,111.93 52.16,105.96 51.53,103.03 49.68,97.32 45.84,89.19 39.45,79.04 32.18,69.5 24.35,60.41 14,49.55 0.99,37.12" fill="none" stroke="#000000" stroke-width="1"/><polyline id="SvgjsPolyline2121" points="599.63,99.13 597.16,97.44 594.36,96.36 591.38,96.47 588.87,98.06 587.21,100.54 585.3,106.22 584.78,112.18 584.96,115.18 585.92,121.1 588.37,129.75 592.92,140.85 598.49,151.47" fill="none" stroke="#000000" stroke-width="1"/><polyline id="SvgjsPolyline2122" points="598.81,91.79 594.35,87.79 591.89,86.07 586.52,83.42 583.62,82.65 580.64,82.39 577.66,82.73 574.83,83.7 572.27,85.26 570.05,87.28 568.21,89.64 566.73,92.24 565.57,95.01 564.09,100.82 563.51,109.79 564.32,118.74 566.08,127.57 568.53,136.23 572.54,147.53 577.17,158.6 583.59,172.16 590.54,185.45 599.47,201.08" fill="none" stroke="#000000" stroke-width="1"/><polyline id="SvgjsPolyline2123" points="599.52,26.67 583.86,1.08" fill="none" stroke="#000000" stroke-width="1"/><polyline id="SvgjsPolyline2124" points="0.72,308.94 6.22,301.82 14.16,292.83 22.8,284.5 29.73,278.76 37.01,273.47 47.2,267.13 57.83,261.59 66.05,257.92 77.24,253.6 88.65,249.87 103.12,245.91 114.81,243.23 129.54,240.38 144.35,238.03 159.23,236.14 177.15,234.38 192.11,233.3 210.09,232.48 225.08,232.22 240.08,232.42 255.06,233.21 267,234.37 278.87,236.13 287.69,237.93 299.26,241.09 307.76,244.06 318.76,248.84 326.71,253.05 336.86,259.45 344.1,264.79 351.04,270.52 359.87,278.65" fill="none" stroke="#000000" stroke-width="1"/><polyline id="SvgjsPolyline2125" points="0.81,186.67 42.8,187.5 81.76,189.26 114.66,191.76 144.49,195 174.18,199.29 203.68,204.73 230.01,210.69 256.04,217.84 275.97,224.46 295.43,232.34 311.48,240.47 321.78,246.63 329.28,251.6 338.94,258.71 350.41,268.38 363.33,280.91 383.79,302.84 392.2,311.4 401.23,319.3 408.71,324.3 414.13,326.86 416.97,327.81 422.86,328.9 425.86,328.99 428.85,328.77 434.7,327.47 440.26,325.23 445.5,322.31" fill="none" stroke="#000000" stroke-width="1"/><polyline id="SvgjsPolyline2126" points="0.46,120.22 1.11,117.29 1.6,111.32 1.46,108.32 0.57,102.39" fill="none" stroke="#000000" stroke-width="1"/><polyline id="SvgjsPolyline2127" points="598.44,103.64 596.71,106 596.38,108.97 597.17,114.9 599.05,120.59" fill="none" stroke="#000000" stroke-width="1"/><polyline id="SvgjsPolyline2128" points="1.1,289.31 10.03,281.29 22.09,272.39 35,264.76 48.54,258.32 65.39,251.99 82.65,246.89 100.17,242.79 120.82,239 147.59,235.44 174.48,233.04 201.44,231.66 225.44,231.36 246.42,232.04 267.33,233.96 285.06,237.03 299.53,240.95" fill="none" stroke="#000000" stroke-width="1"/><polyline id="SvgjsPolyline2129" points="0.7,198.67 51.66,200.66 96.59,203.15 135.48,206.05 171.31,209.52 201.08,213.19 230.72,217.85 254.24,222.6 265.89,225.46 277.44,228.72 291.65,233.52 305.47,239.34 318.79,246.24 331.52,254.16 343.54,263.12 354.83,273 365.49,283.55 388.1,307.58 394.56,313.84 401.44,319.65 408.95,324.59 414.39,327.1 420.17,328.68 426.15,329.09" fill="none" stroke="#000000" stroke-width="1"/><polyline id="SvgjsPolyline2130" points="2.4,272.03 10.08,267.33 18.01,263.08 26.15,259.26 34.47,255.82 42.92,252.73 54.36,249.11 65.94,245.97 77.63,243.25 101.21,238.83 127.97,235.22 160.84,232.27 193.79,230.65 220.79,230.39 244.77,231.26 265.67,233.26 283.41,236.32 297.89,240.18 306.39,243.15 314.69,246.63 327.97,253.58 340.46,261.88" fill="none" stroke="#000000" stroke-width="1"/><polyline id="SvgjsPolyline2131" points="0.31,210.67 57.3,212.01 111.27,213.8 153.22,215.78 183.16,217.72 216.03,220.66 239.84,223.66 260.53,227.2 280.97,232.03 295.26,236.57 309.12,242.29 322.45,249.16 335.1,257.21 344.67,264.45 355.94,274.34 366.58,284.91 387.14,306.75 395.78,315.08 400.38,318.94 405.23,322.45 413.15,326.71" fill="none" stroke="#000000" stroke-width="1"/><polyline id="SvgjsPolyline2132" points="1.32,258.55 9.67,255.18 21,251.22 32.49,247.79 44.12,244.82 55.84,242.23 70.58,239.45 100.27,235.22 136.11,231.83 172.05,229.82 208.04,229.18 223.04,229.42 238.03,230.06 258.95,231.85 276.74,234.54 285.54,236.43 294.23,238.76 308.38,243.73 316.61,247.37 324.6,251.51 337.28,259.51 349.12,268.71 362.32,280.94" fill="none" stroke="#000000" stroke-width="1"/><polyline id="SvgjsPolyline2133" points="0.07,222.66 48.06,221.63 99.06,221.16 147.06,221.46 183.04,222.41 213,223.97 239.89,226.36 263.65,229.76 281.25,233.51 289.92,235.91 298.46,238.74 312.32,244.48 325.59,251.46 338.12,259.69 347.57,267.09 356.52,275.08 367.15,285.66 389.87,309.59 396.44,315.74 403.49,321.33" fill="none" stroke="#000000" stroke-width="1"/><polyline id="SvgjsPolyline2134" points="2.46,245.11 20.05,241.27 34.81,238.62 52.62,236 73.48,233.56 97.38,231.38 124.31,229.56 151.29,228.32 175.28,227.71 196.28,227.6 217.27,228 235.25,228.88 250.2,230.11 265.08,231.97 276.9,234.04 288.58,236.77 300.05,240.3" fill="none" stroke="#000000" stroke-width="1"/></g></svg>