<?xml version="1.0" standalone="no"?>
<!DOCTYPE svg PUBLIC "-//W3C//DTD SVG 20010904//EN"
 "http://www.w3.org/TR/2001/REC-SVG-20010904/DTD/svg10.dtd">
<svg version="1.0" xmlns="http://www.w3.org/2000/svg"
 width="300.000000pt" height="302.000000pt" viewBox="0 0 300.000000 302.000000"
 preserveAspectRatio="xMidYMid meet">
<metadata>
Created by potrace 1.10, written by Peter Selinger 2001-2011
</metadata>
<g transform="translate(0.000000,302.000000) scale(0.100000,-0.100000)"
fill="#dadada" stroke="none">
<path d="M180 2245 c0 -20 5 -25 27 -25 15 0 47 -10 71 -21 56 -27 83 -64 391
-531 l242 -366 -3 -259 c-3 -231 -5 -262 -22 -297 -23 -45 -70 -70 -153 -81
-43 -6 -53 -10 -53 -26 0 -18 12 -19 355 -19 345 0 355 1 355 19 0 16 -9 21
-47 26 -72 10 -108 23 -130 48 -47 51 -48 59 -51 343 l-4 270 238 377 c130
208 254 397 276 421 48 55 127 96 185 96 39 0 43 2 43 25 l0 25 -290 0 -290 0
0 -25 c0 -22 4 -25 35 -25 89 0 141 -50 133 -128 -4 -40 -32 -91 -188 -342
-100 -162 -188 -301 -195 -308 -9 -10 -49 48 -190 275 -210 336 -215 346 -215
394 0 66 60 109 154 109 32 0 36 3 36 25 l0 25 -355 0 -355 0 0 -25z"/>
<path d="M2010 2246 c0 -21 5 -24 56 -28 39 -3 61 -11 77 -27 l22 -22 -26 -47
c-19 -34 -105 -119 -315 -309 l-289 -262 -3 -52 -3 -52 309 -311 c294 -295
342 -351 342 -393 0 -33 -30 -63 -76 -74 -32 -8 -44 -16 -44 -30 0 -18 15 -19
385 -19 378 0 385 0 385 20 0 11 -3 20 -7 20 -56 2 -156 26 -197 48 -35 19
-181 155 -473 441 -233 227 -423 418 -422 425 1 14 514 491 585 544 86 64 181
101 262 102 27 0 32 4 32 25 l0 25 -300 0 -300 0 0 -24z"/>
</g>
</svg>
